ISO-10303-21;
HEADER;
/* Generated by software containing ST-Developer
 * from STEP Tools, Inc. (www.steptools.com) 
 */

FILE_DESCRIPTION(
/* description */ (''),
/* implementation_level */ '2;1');

FILE_NAME(
/* name */ '7-62x51mm_FMJ_mk1_v1.step',
/* time_stamp */ '2026-05-11T15:14:05+09:00',
/* author */ (''),
/* organization */ (''),
/* preprocessor_version */ 'ST-DEVELOPER v20.1',
/* originating_system */ 'Autodesk Translation Framework v15.8.0.0',
/* authorisation */ '');

FILE_SCHEMA (('AUTOMOTIVE_DESIGN { 1 0 10303 214 3 1 1 }'));
ENDSEC;

DATA;
#10=MECHANICAL_DESIGN_GEOMETRIC_PRESENTATION_REPRESENTATION('',(#15,#16),
#408);
#11=SHAPE_REPRESENTATION_RELATIONSHIP('SRR','None',#415,#12);
#12=ADVANCED_BREP_SHAPE_REPRESENTATION('',(#17,#18),#407);
#13=ELLIPSE('',#251,20.1199992400408,3.915);
#14=(
BOUNDED_SURFACE()
B_SPLINE_SURFACE(2,2,((#376,#377,#378,#379,#380,#381,#382,#383,#384),(#385,
#386,#387,#388,#389,#390,#391,#392,#393),(#394,#395,#396,#397,#398,#399,
#400,#401,#402)),.UNSPECIFIED.,.F.,.T.,.F.)
B_SPLINE_SURFACE_WITH_KNOTS((3,3),(3,2,2,2,3),(0.,1.56180021902764),(0.,
1.5707963267949,3.14159265358979,4.71238898038469,6.28318530717959),
 .UNSPECIFIED.)
GEOMETRIC_REPRESENTATION_ITEM()
RATIONAL_B_SPLINE_SURFACE(((1.,0.707106781186548,1.,0.707106781186548,1.,
0.707106781186548,1.,0.707106781186548,1.),(0.710280221611624,0.502243961244263,
0.710280221611624,0.502243961244263,0.710280221611624,0.502243961244263,
0.710280221611624,0.502243961244263,0.710280221611624),(1.,0.707106781186548,
1.,0.707106781186548,1.,0.707106781186548,1.,0.707106781186548,1.)))
REPRESENTATION_ITEM('')
SURFACE()
);
#15=STYLED_ITEM('',(#425),#17);
#16=STYLED_ITEM('',(#426),#18);
#17=MANIFOLD_SOLID_BREP('\X2\30DC30C730A3\X0\4',#207);
#18=MANIFOLD_SOLID_BREP('\X2\30DC30C730A3\X0\5',#208);
#19=FACE_BOUND('',#54,.T.);
#20=FACE_BOUND('',#59,.T.);
#21=FACE_BOUND('',#64,.T.);
#22=CONICAL_SURFACE('',#226,5.57724999999836,0.628318530721752);
#23=CONICAL_SURFACE('',#231,5.16124999999962,0.349065850401082);
#24=CONICAL_SURFACE('',#238,5.77799999999924,0.785398163397448);
#25=PLANE('',#225);
#26=PLANE('',#235);
#27=PLANE('',#236);
#28=PLANE('',#242);
#29=PLANE('',#248);
#30=PLANE('',#249);
#31=FACE_OUTER_BOUND('',#47,.T.);
#32=FACE_OUTER_BOUND('',#48,.T.);
#33=FACE_OUTER_BOUND('',#49,.T.);
#34=FACE_OUTER_BOUND('',#50,.T.);
#35=FACE_OUTER_BOUND('',#51,.T.);
#36=FACE_OUTER_BOUND('',#52,.T.);
#37=FACE_OUTER_BOUND('',#53,.T.);
#38=FACE_OUTER_BOUND('',#55,.T.);
#39=FACE_OUTER_BOUND('',#56,.T.);
#40=FACE_OUTER_BOUND('',#57,.T.);
#41=FACE_OUTER_BOUND('',#58,.T.);
#42=FACE_OUTER_BOUND('',#60,.T.);
#43=FACE_OUTER_BOUND('',#61,.T.);
#44=FACE_OUTER_BOUND('',#62,.T.);
#45=FACE_OUTER_BOUND('',#63,.T.);
#46=FACE_OUTER_BOUND('',#65,.T.);
#47=EDGE_LOOP('',(#137,#138,#139,#140));
#48=EDGE_LOOP('',(#141));
#49=EDGE_LOOP('',(#142,#143,#144,#145));
#50=EDGE_LOOP('',(#146,#147,#148,#149));
#51=EDGE_LOOP('',(#150,#151,#152,#153));
#52=EDGE_LOOP('',(#154,#155,#156,#157));
#53=EDGE_LOOP('',(#158));
#54=EDGE_LOOP('',(#159));
#55=EDGE_LOOP('',(#160));
#56=EDGE_LOOP('',(#161,#162,#163,#164));
#57=EDGE_LOOP('',(#165,#166,#167,#168));
#58=EDGE_LOOP('',(#169));
#59=EDGE_LOOP('',(#170));
#60=EDGE_LOOP('',(#171,#172,#173,#174));
#61=EDGE_LOOP('',(#175,#176,#177,#178));
#62=EDGE_LOOP('',(#179));
#63=EDGE_LOOP('',(#180));
#64=EDGE_LOOP('',(#181));
#65=EDGE_LOOP('',(#182,#183,#184));
#66=LINE('',#328,#75);
#67=LINE('',#335,#76);
#68=LINE('',#340,#77);
#69=LINE('',#344,#78);
#70=LINE('',#348,#79);
#71=LINE('',#356,#80);
#72=LINE('',#360,#81);
#73=LINE('',#365,#82);
#74=LINE('',#370,#83);
#75=VECTOR('',#258,3.5);
#76=VECTOR('',#267,5.57724999999836);
#77=VECTOR('',#274,5.95999999999924);
#78=VECTOR('',#279,5.16124999999962);
#79=VECTOR('',#284,4.36249999999994);
#80=VECTOR('',#295,5.77799999999924);
#81=VECTOR('',#300,6.00700000000003);
#82=VECTOR('',#307,5.19449999999873);
#83=VECTOR('',#312,3.5);
#84=CIRCLE('',#223,3.5);
#85=CIRCLE('',#224,3.5);
#86=CIRCLE('',#227,5.95999999999924);
#87=CIRCLE('',#228,5.19449999999747);
#88=CIRCLE('',#230,5.95999999999924);
#89=CIRCLE('',#232,4.3625);
#90=CIRCLE('',#234,4.36249999999988);
#91=CIRCLE('',#237,5.54899999999924);
#92=CIRCLE('',#239,6.00699999999924);
#93=CIRCLE('',#241,6.00700000000081);
#94=CIRCLE('',#243,5.1945);
#95=CIRCLE('',#246,3.5);
#96=CIRCLE('',#247,3.5);
#97=CIRCLE('',#250,3.91484158068158);
#98=VERTEX_POINT('',#325);
#99=VERTEX_POINT('',#327);
#100=VERTEX_POINT('',#332);
#101=VERTEX_POINT('',#334);
#102=VERTEX_POINT('',#338);
#103=VERTEX_POINT('',#342);
#104=VERTEX_POINT('',#346);
#105=VERTEX_POINT('',#351);
#106=VERTEX_POINT('',#354);
#107=VERTEX_POINT('',#358);
#108=VERTEX_POINT('',#362);
#109=VERTEX_POINT('',#367);
#110=VERTEX_POINT('',#369);
#111=VERTEX_POINT('',#374);
#112=VERTEX_POINT('',#403);
#113=EDGE_CURVE('',#98,#98,#84,.T.);
#114=EDGE_CURVE('',#98,#99,#66,.T.);
#115=EDGE_CURVE('',#99,#99,#85,.T.);
#116=EDGE_CURVE('',#100,#100,#86,.T.);
#117=EDGE_CURVE('',#100,#101,#67,.T.);
#118=EDGE_CURVE('',#101,#101,#87,.T.);
#119=EDGE_CURVE('',#102,#102,#88,.T.);
#120=EDGE_CURVE('',#102,#100,#68,.T.);
#121=EDGE_CURVE('',#103,#103,#89,.T.);
#122=EDGE_CURVE('',#103,#102,#69,.T.);
#123=EDGE_CURVE('',#104,#104,#90,.T.);
#124=EDGE_CURVE('',#104,#103,#70,.T.);
#125=EDGE_CURVE('',#105,#105,#91,.T.);
#126=EDGE_CURVE('',#106,#106,#92,.T.);
#127=EDGE_CURVE('',#106,#105,#71,.T.);
#128=EDGE_CURVE('',#107,#107,#93,.T.);
#129=EDGE_CURVE('',#107,#106,#72,.T.);
#130=EDGE_CURVE('',#108,#108,#94,.T.);
#131=EDGE_CURVE('',#101,#108,#73,.T.);
#132=EDGE_CURVE('',#109,#109,#95,.T.);
#133=EDGE_CURVE('',#109,#110,#74,.T.);
#134=EDGE_CURVE('',#110,#110,#96,.T.);
#135=EDGE_CURVE('',#111,#111,#97,.T.);
#136=EDGE_CURVE('',#112,#111,#13,.T.);
#137=ORIENTED_EDGE('',*,*,#113,.F.);
#138=ORIENTED_EDGE('',*,*,#114,.T.);
#139=ORIENTED_EDGE('',*,*,#115,.T.);
#140=ORIENTED_EDGE('',*,*,#114,.F.);
#141=ORIENTED_EDGE('',*,*,#115,.F.);
#142=ORIENTED_EDGE('',*,*,#116,.F.);
#143=ORIENTED_EDGE('',*,*,#117,.T.);
#144=ORIENTED_EDGE('',*,*,#118,.T.);
#145=ORIENTED_EDGE('',*,*,#117,.F.);
#146=ORIENTED_EDGE('',*,*,#119,.F.);
#147=ORIENTED_EDGE('',*,*,#120,.T.);
#148=ORIENTED_EDGE('',*,*,#116,.T.);
#149=ORIENTED_EDGE('',*,*,#120,.F.);
#150=ORIENTED_EDGE('',*,*,#121,.F.);
#151=ORIENTED_EDGE('',*,*,#122,.T.);
#152=ORIENTED_EDGE('',*,*,#119,.T.);
#153=ORIENTED_EDGE('',*,*,#122,.F.);
#154=ORIENTED_EDGE('',*,*,#123,.F.);
#155=ORIENTED_EDGE('',*,*,#124,.T.);
#156=ORIENTED_EDGE('',*,*,#121,.T.);
#157=ORIENTED_EDGE('',*,*,#124,.F.);
#158=ORIENTED_EDGE('',*,*,#123,.T.);
#159=ORIENTED_EDGE('',*,*,#113,.T.);
#160=ORIENTED_EDGE('',*,*,#125,.F.);
#161=ORIENTED_EDGE('',*,*,#126,.F.);
#162=ORIENTED_EDGE('',*,*,#127,.T.);
#163=ORIENTED_EDGE('',*,*,#125,.T.);
#164=ORIENTED_EDGE('',*,*,#127,.F.);
#165=ORIENTED_EDGE('',*,*,#128,.F.);
#166=ORIENTED_EDGE('',*,*,#129,.T.);
#167=ORIENTED_EDGE('',*,*,#126,.T.);
#168=ORIENTED_EDGE('',*,*,#129,.F.);
#169=ORIENTED_EDGE('',*,*,#128,.T.);
#170=ORIENTED_EDGE('',*,*,#130,.F.);
#171=ORIENTED_EDGE('',*,*,#118,.F.);
#172=ORIENTED_EDGE('',*,*,#131,.T.);
#173=ORIENTED_EDGE('',*,*,#130,.T.);
#174=ORIENTED_EDGE('',*,*,#131,.F.);
#175=ORIENTED_EDGE('',*,*,#132,.F.);
#176=ORIENTED_EDGE('',*,*,#133,.T.);
#177=ORIENTED_EDGE('',*,*,#134,.F.);
#178=ORIENTED_EDGE('',*,*,#133,.F.);
#179=ORIENTED_EDGE('',*,*,#132,.T.);
#180=ORIENTED_EDGE('',*,*,#135,.F.);
#181=ORIENTED_EDGE('',*,*,#134,.T.);
#182=ORIENTED_EDGE('',*,*,#136,.T.);
#183=ORIENTED_EDGE('',*,*,#135,.T.);
#184=ORIENTED_EDGE('',*,*,#136,.F.);
#185=CYLINDRICAL_SURFACE('',#222,3.5);
#186=CYLINDRICAL_SURFACE('',#229,5.95999999999924);
#187=CYLINDRICAL_SURFACE('',#233,4.36249999999994);
#188=CYLINDRICAL_SURFACE('',#240,6.00700000000003);
#189=CYLINDRICAL_SURFACE('',#244,5.19449999999873);
#190=CYLINDRICAL_SURFACE('',#245,3.5);
#191=ADVANCED_FACE('',(#31),#185,.F.);
#192=ADVANCED_FACE('',(#32),#25,.T.);
#193=ADVANCED_FACE('',(#33),#22,.T.);
#194=ADVANCED_FACE('',(#34),#186,.T.);
#195=ADVANCED_FACE('',(#35),#23,.T.);
#196=ADVANCED_FACE('',(#36),#187,.T.);
#197=ADVANCED_FACE('',(#37,#19),#26,.T.);
#198=ADVANCED_FACE('',(#38),#27,.T.);
#199=ADVANCED_FACE('',(#39),#24,.T.);
#200=ADVANCED_FACE('',(#40),#188,.T.);
#201=ADVANCED_FACE('',(#41,#20),#28,.T.);
#202=ADVANCED_FACE('',(#42),#189,.T.);
#203=ADVANCED_FACE('',(#43),#190,.T.);
#204=ADVANCED_FACE('',(#44),#29,.F.);
#205=ADVANCED_FACE('',(#45,#21),#30,.T.);
#206=ADVANCED_FACE('',(#46),#14,.T.);
#207=CLOSED_SHELL('',(#191,#192,#193,#194,#195,#196,#197,#198,#199,#200,
#201,#202));
#208=CLOSED_SHELL('',(#203,#204,#205,#206));
#209=DERIVED_UNIT_ELEMENT(#211,1.);
#210=DERIVED_UNIT_ELEMENT(#410,-3.);
#211=(
MASS_UNIT()
NAMED_UNIT(*)
SI_UNIT(.KILO.,.GRAM.)
);
#212=DERIVED_UNIT((#209,#210));
#213=MEASURE_REPRESENTATION_ITEM('density measure',
POSITIVE_RATIO_MEASURE(7850.),#212);
#214=PROPERTY_DEFINITION_REPRESENTATION(#219,#216);
#215=PROPERTY_DEFINITION_REPRESENTATION(#220,#217);
#216=REPRESENTATION('material name',(#218),#407);
#217=REPRESENTATION('density',(#213),#407);
#218=DESCRIPTIVE_REPRESENTATION_ITEM('\X2\92FC\X0\','\X2\92FC\X0\');
#219=PROPERTY_DEFINITION('material property','material name',#417);
#220=PROPERTY_DEFINITION('material property','density of part',#417);
#221=AXIS2_PLACEMENT_3D('',#323,#252,#253);
#222=AXIS2_PLACEMENT_3D('',#324,#254,#255);
#223=AXIS2_PLACEMENT_3D('',#326,#256,#257);
#224=AXIS2_PLACEMENT_3D('',#329,#259,#260);
#225=AXIS2_PLACEMENT_3D('',#330,#261,#262);
#226=AXIS2_PLACEMENT_3D('',#331,#263,#264);
#227=AXIS2_PLACEMENT_3D('',#333,#265,#266);
#228=AXIS2_PLACEMENT_3D('',#336,#268,#269);
#229=AXIS2_PLACEMENT_3D('',#337,#270,#271);
#230=AXIS2_PLACEMENT_3D('',#339,#272,#273);
#231=AXIS2_PLACEMENT_3D('',#341,#275,#276);
#232=AXIS2_PLACEMENT_3D('',#343,#277,#278);
#233=AXIS2_PLACEMENT_3D('',#345,#280,#281);
#234=AXIS2_PLACEMENT_3D('',#347,#282,#283);
#235=AXIS2_PLACEMENT_3D('',#349,#285,#286);
#236=AXIS2_PLACEMENT_3D('',#350,#287,#288);
#237=AXIS2_PLACEMENT_3D('',#352,#289,#290);
#238=AXIS2_PLACEMENT_3D('',#353,#291,#292);
#239=AXIS2_PLACEMENT_3D('',#355,#293,#294);
#240=AXIS2_PLACEMENT_3D('',#357,#296,#297);
#241=AXIS2_PLACEMENT_3D('',#359,#298,#299);
#242=AXIS2_PLACEMENT_3D('',#361,#301,#302);
#243=AXIS2_PLACEMENT_3D('',#363,#303,#304);
#244=AXIS2_PLACEMENT_3D('',#364,#305,#306);
#245=AXIS2_PLACEMENT_3D('',#366,#308,#309);
#246=AXIS2_PLACEMENT_3D('',#368,#310,#311);
#247=AXIS2_PLACEMENT_3D('',#371,#313,#314);
#248=AXIS2_PLACEMENT_3D('',#372,#315,#316);
#249=AXIS2_PLACEMENT_3D('',#373,#317,#318);
#250=AXIS2_PLACEMENT_3D('',#375,#319,#320);
#251=AXIS2_PLACEMENT_3D('',#404,#321,#322);
#252=DIRECTION('axis',(0.,0.,1.));
#253=DIRECTION('refdir',(1.,0.,0.));
#254=DIRECTION('center_axis',(-1.,0.,0.));
#255=DIRECTION('ref_axis',(0.,1.,0.));
#256=DIRECTION('center_axis',(-1.,0.,0.));
#257=DIRECTION('ref_axis',(0.,1.,0.));
#258=DIRECTION('',(-1.,0.,0.));
#259=DIRECTION('center_axis',(-1.,0.,0.));
#260=DIRECTION('ref_axis',(0.,1.,0.));
#261=DIRECTION('center_axis',(1.,0.,0.));
#262=DIRECTION('ref_axis',(0.,1.,0.));
#263=DIRECTION('center_axis',(1.,0.,0.));
#264=DIRECTION('ref_axis',(0.,1.,0.));
#265=DIRECTION('center_axis',(1.,0.,0.));
#266=DIRECTION('ref_axis',(0.,0.,-1.));
#267=DIRECTION('',(-0.809016994372718,0.587785252295542,7.19829327809754E-17));
#268=DIRECTION('center_axis',(1.,0.,0.));
#269=DIRECTION('ref_axis',(0.,0.,-1.));
#270=DIRECTION('center_axis',(1.,0.,0.));
#271=DIRECTION('ref_axis',(0.,1.,0.));
#272=DIRECTION('center_axis',(1.,0.,0.));
#273=DIRECTION('ref_axis',(0.,0.,-1.));
#274=DIRECTION('',(-1.,0.,0.));
#275=DIRECTION('center_axis',(-1.,0.,0.));
#276=DIRECTION('ref_axis',(0.,1.,0.));
#277=DIRECTION('center_axis',(1.,0.,0.));
#278=DIRECTION('ref_axis',(0.,0.,-1.));
#279=DIRECTION('',(-0.93969262078515,-0.342020143327751,-4.1885387377025E-17));
#280=DIRECTION('center_axis',(1.,0.,0.));
#281=DIRECTION('ref_axis',(0.,1.,0.));
#282=DIRECTION('center_axis',(1.,0.,0.));
#283=DIRECTION('ref_axis',(0.,0.,-1.));
#284=DIRECTION('',(-1.,0.,0.));
#285=DIRECTION('center_axis',(1.,0.,0.));
#286=DIRECTION('ref_axis',(0.,0.,-1.));
#287=DIRECTION('center_axis',(-1.,0.,0.));
#288=DIRECTION('ref_axis',(0.,0.,1.));
#289=DIRECTION('center_axis',(1.,0.,0.));
#290=DIRECTION('ref_axis',(0.,0.,-1.));
#291=DIRECTION('center_axis',(1.,0.,0.));
#292=DIRECTION('ref_axis',(0.,1.,0.));
#293=DIRECTION('center_axis',(1.,0.,0.));
#294=DIRECTION('ref_axis',(0.,0.,-1.));
#295=DIRECTION('',(-0.707106781186548,0.707106781186547,8.65956056235493E-17));
#296=DIRECTION('center_axis',(1.,0.,0.));
#297=DIRECTION('ref_axis',(0.,1.,0.));
#298=DIRECTION('center_axis',(1.,0.,0.));
#299=DIRECTION('ref_axis',(0.,0.,-1.));
#300=DIRECTION('',(-1.,0.,0.));
#301=DIRECTION('center_axis',(1.,0.,0.));
#302=DIRECTION('ref_axis',(0.,0.,-1.));
#303=DIRECTION('center_axis',(1.,0.,0.));
#304=DIRECTION('ref_axis',(0.,0.,-1.));
#305=DIRECTION('center_axis',(1.,0.,0.));
#306=DIRECTION('ref_axis',(0.,1.,0.));
#307=DIRECTION('',(-1.,0.,0.));
#308=DIRECTION('center_axis',(-1.,0.,0.));
#309=DIRECTION('ref_axis',(0.,1.,0.));
#310=DIRECTION('center_axis',(-1.,0.,0.));
#311=DIRECTION('ref_axis',(0.,1.,0.));
#312=DIRECTION('',(1.,0.,0.));
#313=DIRECTION('center_axis',(1.,0.,0.));
#314=DIRECTION('ref_axis',(0.,1.,0.));
#315=DIRECTION('center_axis',(1.,0.,0.));
#316=DIRECTION('ref_axis',(0.,1.,0.));
#317=DIRECTION('center_axis',(-1.,0.,0.));
#318=DIRECTION('ref_axis',(0.,0.,1.));
#319=DIRECTION('center_axis',(1.,0.,0.));
#320=DIRECTION('ref_axis',(0.,0.,-1.));
#321=DIRECTION('center_axis',(0.,0.,1.));
#322=DIRECTION('ref_axis',(1.,0.,0.));
#323=CARTESIAN_POINT('',(0.,0.,0.));
#324=CARTESIAN_POINT('Origin',(51.181,0.,0.));
#325=CARTESIAN_POINT('',(51.181,-3.5,-4.28626379701574E-16));
#326=CARTESIAN_POINT('Origin',(51.181,0.,0.));
#327=CARTESIAN_POINT('',(11.181,-3.5,-4.28626379701574E-16));
#328=CARTESIAN_POINT('',(51.181,-3.5,4.28626379701574E-16));
#329=CARTESIAN_POINT('Origin',(11.181,0.,0.));
#330=CARTESIAN_POINT('Origin',(11.181,0.,0.));
#331=CARTESIAN_POINT('Origin',(3.29581018005736,0.,0.));
#332=CARTESIAN_POINT('',(3.82262036011472,-5.95999999999924,-7.2988949229173E-16));
#333=CARTESIAN_POINT('Origin',(3.82262036011472,0.,0.));
#334=CARTESIAN_POINT('',(2.769,-5.19449999999747,-6.36142779816783E-16));
#335=CARTESIAN_POINT('',(3.29581018005736,-5.57724999999836,-6.83016136054256E-16));
#336=CARTESIAN_POINT('Origin',(2.769,0.,0.));
#337=CARTESIAN_POINT('Origin',(21.4867625912842,0.,0.));
#338=CARTESIAN_POINT('',(39.1509048224536,-5.95999999999924,-7.2988949229173E-16));
#339=CARTESIAN_POINT('Origin',(39.1509048224536,0.,0.));
#340=CARTESIAN_POINT('',(21.4867625912842,-5.95999999999924,-7.2988949229173E-16));
#341=CARTESIAN_POINT('Origin',(41.3454524112268,0.,0.));
#342=CARTESIAN_POINT('',(43.54,-4.3625,-5.34252166128032E-16));
#343=CARTESIAN_POINT('Origin',(43.54,0.,0.));
#344=CARTESIAN_POINT('',(41.3454524112268,-5.16124999999962,-6.32070829209881E-16));
#345=CARTESIAN_POINT('Origin',(47.3605,0.,0.));
#346=CARTESIAN_POINT('',(51.181,-4.36249999999994,-5.34252166128025E-16));
#347=CARTESIAN_POINT('Origin',(51.181,0.,0.));
#348=CARTESIAN_POINT('',(47.3605,-4.36249999999994,-5.34252166128025E-16));
#349=CARTESIAN_POINT('Origin',(51.181,0.,0.));
#350=CARTESIAN_POINT('Origin',(-4.74231228163617E-16,5.54899999999924,0.));
#351=CARTESIAN_POINT('',(-3.46944695195361E-16,-5.54899999999924,-6.79556508846774E-16));
#352=CARTESIAN_POINT('Origin',(-5.55111512312578E-16,0.,0.));
#353=CARTESIAN_POINT('Origin',(0.228999999999999,0.,0.));
#354=CARTESIAN_POINT('',(0.458,-6.00699999999924,-7.35645332247722E-16));
#355=CARTESIAN_POINT('Origin',(0.458,0.,0.));
#356=CARTESIAN_POINT('',(0.228999999999999,-5.77799999999924,-7.07600920547248E-16));
#357=CARTESIAN_POINT('Origin',(0.914999999999999,0.,0.));
#358=CARTESIAN_POINT('',(1.372,-6.00700000000003,-7.35645332247818E-16));
#359=CARTESIAN_POINT('Origin',(1.372,0.,0.));
#360=CARTESIAN_POINT('',(0.914999999999999,-6.00700000000003,-7.35645332247818E-16));
#361=CARTESIAN_POINT('Origin',(1.372,5.1945,0.));
#362=CARTESIAN_POINT('',(1.372,-5.19449999999873,-6.36142779816938E-16));
#363=CARTESIAN_POINT('Origin',(1.372,0.,0.));
#364=CARTESIAN_POINT('Origin',(2.0705,0.,0.));
#365=CARTESIAN_POINT('',(2.0705,-5.19449999999873,-6.36142779816938E-16));
#366=CARTESIAN_POINT('Origin',(51.181,0.,0.));
#367=CARTESIAN_POINT('',(46.181,-3.5,-4.28626379701574E-16));
#368=CARTESIAN_POINT('Origin',(46.181,0.,0.));
#369=CARTESIAN_POINT('',(51.181,-3.5,-4.28626379701574E-16));
#370=CARTESIAN_POINT('',(51.181,-3.5,4.28626379701574E-16));
#371=CARTESIAN_POINT('Origin',(51.181,0.,0.));
#372=CARTESIAN_POINT('Origin',(46.181,0.,0.));
#373=CARTESIAN_POINT('Origin',(51.181,3.91484158068158,0.));
#374=CARTESIAN_POINT('',(51.181,3.91484158068158,0.));
#375=CARTESIAN_POINT('Origin',(51.181,0.,0.));
#376=CARTESIAN_POINT('Ctrl Pts',(71.12,0.,0.));
#377=CARTESIAN_POINT('Ctrl Pts',(71.12,0.,0.));
#378=CARTESIAN_POINT('Ctrl Pts',(71.12,0.,0.));
#379=CARTESIAN_POINT('Ctrl Pts',(71.12,0.,0.));
#380=CARTESIAN_POINT('Ctrl Pts',(71.12,0.,0.));
#381=CARTESIAN_POINT('Ctrl Pts',(71.12,0.,0.));
#382=CARTESIAN_POINT('Ctrl Pts',(71.12,0.,0.));
#383=CARTESIAN_POINT('Ctrl Pts',(71.12,0.,0.));
#384=CARTESIAN_POINT('Ctrl Pts',(71.12,0.,0.));
#385=CARTESIAN_POINT('Ctrl Pts',(71.12,3.87993771367825,0.));
#386=CARTESIAN_POINT('Ctrl Pts',(71.12,3.87993771367825,3.87993771367825));
#387=CARTESIAN_POINT('Ctrl Pts',(71.12,0.,3.87993771367825));
#388=CARTESIAN_POINT('Ctrl Pts',(71.12,-3.87993771367825,3.87993771367825));
#389=CARTESIAN_POINT('Ctrl Pts',(71.12,-3.87993771367825,0.));
#390=CARTESIAN_POINT('Ctrl Pts',(71.12,-3.87993771367825,-3.87993771367825));
#391=CARTESIAN_POINT('Ctrl Pts',(71.12,0.,-3.87993771367825));
#392=CARTESIAN_POINT('Ctrl Pts',(71.12,3.87993771367825,-3.87993771367825));
#393=CARTESIAN_POINT('Ctrl Pts',(71.12,3.87993771367825,0.));
#394=CARTESIAN_POINT('Ctrl Pts',(51.181,3.91484158068158,0.));
#395=CARTESIAN_POINT('Ctrl Pts',(51.181,3.91484158068157,3.91484158068157));
#396=CARTESIAN_POINT('Ctrl Pts',(51.181,0.,3.91484158068158));
#397=CARTESIAN_POINT('Ctrl Pts',(51.181,-3.91484158068157,3.91484158068157));
#398=CARTESIAN_POINT('Ctrl Pts',(51.181,-3.91484158068158,0.));
#399=CARTESIAN_POINT('Ctrl Pts',(51.181,-3.91484158068157,-3.91484158068157));
#400=CARTESIAN_POINT('Ctrl Pts',(51.181,0.,-3.91484158068158));
#401=CARTESIAN_POINT('Ctrl Pts',(51.181,3.91484158068157,-3.91484158068157));
#402=CARTESIAN_POINT('Ctrl Pts',(51.181,3.91484158068158,0.));
#403=CARTESIAN_POINT('',(71.12,0.,0.));
#404=CARTESIAN_POINT('Origin',(51.0000007599592,0.,0.));
#405=UNCERTAINTY_MEASURE_WITH_UNIT(LENGTH_MEASURE(0.01),#409,
'DISTANCE_ACCURACY_VALUE',
'Maximum model space distance between geometric entities at asserted c
onnectivities');
#406=UNCERTAINTY_MEASURE_WITH_UNIT(LENGTH_MEASURE(0.01),#409,
'DISTANCE_ACCURACY_VALUE',
'Maximum model space distance between geometric entities at asserted c
onnectivities');
#407=(
GEOMETRIC_REPRESENTATION_CONTEXT(3)
GLOBAL_UNCERTAINTY_ASSIGNED_CONTEXT((#405))
GLOBAL_UNIT_ASSIGNED_CONTEXT((#409,#411,#412))
REPRESENTATION_CONTEXT('','3D')
);
#408=(
GEOMETRIC_REPRESENTATION_CONTEXT(3)
GLOBAL_UNCERTAINTY_ASSIGNED_CONTEXT((#406))
GLOBAL_UNIT_ASSIGNED_CONTEXT((#409,#411,#412))
REPRESENTATION_CONTEXT('','3D')
);
#409=(
LENGTH_UNIT()
NAMED_UNIT(*)
SI_UNIT(.MILLI.,.METRE.)
);
#410=(
LENGTH_UNIT()
NAMED_UNIT(*)
SI_UNIT($,.METRE.)
);
#411=(
NAMED_UNIT(*)
PLANE_ANGLE_UNIT()
SI_UNIT($,.RADIAN.)
);
#412=(
NAMED_UNIT(*)
SI_UNIT($,.STERADIAN.)
SOLID_ANGLE_UNIT()
);
#413=SHAPE_DEFINITION_REPRESENTATION(#414,#415);
#414=PRODUCT_DEFINITION_SHAPE('',$,#417);
#415=SHAPE_REPRESENTATION('',(#221),#407);
#416=PRODUCT_DEFINITION_CONTEXT('part definition',#421,'design');
#417=PRODUCT_DEFINITION('7.62x51mm_FMJ','7.62x51mm_FMJ v1',#418,#416);
#418=PRODUCT_DEFINITION_FORMATION('',$,#423);
#419=PRODUCT_RELATED_PRODUCT_CATEGORY('7.62x51mm_FMJ v1',
'7.62x51mm_FMJ v1',(#423));
#420=APPLICATION_PROTOCOL_DEFINITION('international standard',
'automotive_design',2009,#421);
#421=APPLICATION_CONTEXT(
'Core Data for Automotive Mechanical Design Process');
#422=PRODUCT_CONTEXT('part definition',#421,'mechanical');
#423=PRODUCT('7.62x51mm_FMJ','7.62x51mm_FMJ v1',$,(#422));
#424=PRESENTATION_STYLE_ASSIGNMENT((#427));
#425=PRESENTATION_STYLE_ASSIGNMENT((#428));
#426=PRESENTATION_STYLE_ASSIGNMENT((#429));
#427=SURFACE_STYLE_USAGE(.BOTH.,#430);
#428=SURFACE_STYLE_USAGE(.BOTH.,#431);
#429=SURFACE_STYLE_USAGE(.BOTH.,#432);
#430=SURFACE_SIDE_STYLE('',(#433));
#431=SURFACE_SIDE_STYLE('',(#434));
#432=SURFACE_SIDE_STYLE('',(#435));
#433=SURFACE_STYLE_FILL_AREA(#436);
#434=SURFACE_STYLE_FILL_AREA(#437);
#435=SURFACE_STYLE_FILL_AREA(#438);
#436=FILL_AREA_STYLE('\X2\92FC\X0\ - \X2\30B530C630F3\X0\',(#439));
#437=FILL_AREA_STYLE('\X2\771F936E\X0\ - \X2\53E43044\X0\ - \X2\30DE30C330C8\X0\',
(#440));
#438=FILL_AREA_STYLE('\X2\9285\X0\ - \X2\672A51E67406\X0\',(#441));
#439=FILL_AREA_STYLE_COLOUR('\X2\92FC\X0\ - \X2\30B530C630F3\X0\',#442);
#440=FILL_AREA_STYLE_COLOUR('\X2\771F936E\X0\ - \X2\53E43044\X0\ - \X2\30DE30C330C8\X0\',
#443);
#441=FILL_AREA_STYLE_COLOUR('\X2\9285\X0\ - \X2\672A51E67406\X0\',#444);
#442=COLOUR_RGB('\X2\92FC\X0\ - \X2\30B530C630F3\X0\',0.627450980392157,
0.627450980392157,0.627450980392157);
#443=COLOUR_RGB('\X2\771F936E\X0\ - \X2\53E43044\X0\ - \X2\30DE30C330C8\X0\',
0.,0.,0.);
#444=COLOUR_RGB('\X2\9285\X0\ - \X2\672A51E67406\X0\',0.,0.,0.);
ENDSEC;
END-ISO-10303-21;
