ISO-10303-21;
HEADER;
/* Generated by software containing ST-Developer
 * from STEP Tools, Inc. (www.steptools.com) 
 */

FILE_DESCRIPTION(
/* description */ (''),
/* implementation_level */ '2;1');

FILE_NAME(
/* name */ '12-7x99mm_FMJ_mk1_v4.step',
/* time_stamp */ '2026-05-11T15:17:44+09:00',
/* author */ (''),
/* organization */ (''),
/* preprocessor_version */ 'ST-DEVELOPER v20.1',
/* originating_system */ 'Autodesk Translation Framework v15.8.0.0',
/* authorisation */ '');

FILE_SCHEMA (('AUTOMOTIVE_DESIGN { 1 0 10303 214 3 1 1 }'));
ENDSEC;

DATA;
#10=MECHANICAL_DESIGN_GEOMETRIC_PRESENTATION_REPRESENTATION('',(#15,#16),
#636);
#11=SHAPE_REPRESENTATION_RELATIONSHIP('SRR','None',#643,#12);
#12=ADVANCED_BREP_SHAPE_REPRESENTATION('',(#17,#18),#635);
#13=SPHERICAL_SURFACE('',#389,1.50000000038221);
#14=(
BOUNDED_SURFACE()
B_SPLINE_SURFACE(2,2,((#580,#581,#582,#583,#584,#585,#586,#587,#588),(#589,
#590,#591,#592,#593,#594,#595,#596,#597),(#598,#599,#600,#601,#602,#603,
#604,#605,#606)),.UNSPECIFIED.,.F.,.T.,.F.)
B_SPLINE_SURFACE_WITH_KNOTS((3,3),(3,2,2,2,3),(-3.55407597242233E-18,0.173728220001084),
(-3.14159265358979,-1.5707963267949,0.,1.5707963267949,3.14159265358979),
 .UNSPECIFIED.)
GEOMETRIC_REPRESENTATION_ITEM()
RATIONAL_B_SPLINE_SURFACE(((1.,0.707106781186548,1.,0.707106781186548,1.,
0.707106781186548,1.,0.707106781186548,1.),(0.996229684794656,0.704440765737638,
0.996229684794656,0.704440765737638,0.996229684794656,0.704440765737638,
0.996229684794656,0.704440765737638,0.996229684794656),(1.,0.707106781186548,
1.,0.707106781186548,1.,0.707106781186548,1.,0.707106781186548,1.)))
REPRESENTATION_ITEM('')
SURFACE()
);
#15=STYLED_ITEM('',(#653),#17);
#16=STYLED_ITEM('',(#654),#18);
#17=MANIFOLD_SOLID_BREP('\X2\30DC30C730A3\X0\2',#328);
#18=MANIFOLD_SOLID_BREP('\X2\30DC30C730A3\X0\3',#329);
#19=TOROIDAL_SURFACE('',#353,6.2105,2.);
#20=TOROIDAL_SURFACE('',#376,3.0005,1.);
#21=CONICAL_SURFACE('',#348,6.91125000000001,0.380562029131382);
#22=CONICAL_SURFACE('',#369,9.42325,0.69813170079773);
#23=CONICAL_SURFACE('',#373,8.66125,0.380562029131363);
#24=CONICAL_SURFACE('',#387,3.98346037749062,0.173728220001084);
#25=LINE('',#522,#38);
#26=LINE('',#526,#39);
#27=LINE('',#530,#40);
#28=LINE('',#544,#41);
#29=LINE('',#553,#42);
#30=LINE('',#560,#43);
#31=LINE('',#564,#44);
#32=LINE('',#568,#45);
#33=LINE('',#572,#46);
#34=LINE('',#574,#47);
#35=LINE('',#618,#48);
#36=LINE('',#623,#49);
#37=LINE('',#631,#50);
#38=VECTOR('',#405,5.61200000000001);
#39=VECTOR('',#410,6.91125000000001);
#40=VECTOR('',#415,8.2105);
#41=VECTOR('',#432,4.0005);
#42=VECTOR('',#445,10.2105);
#43=VECTOR('',#454,8.636);
#44=VECTOR('',#459,9.42325);
#45=VECTOR('',#464,10.2105);
#46=VECTOR('',#469,8.66125);
#47=VECTOR('',#472,7.112);
#48=VECTOR('',#493,6.48949999999999);
#49=VECTOR('',#500,3.98346037749062);
#50=VECTOR('',#511,5.61200000000001);
#51=CYLINDRICAL_SURFACE('',#346,5.61200000000001);
#52=CYLINDRICAL_SURFACE('',#350,8.2105);
#53=CYLINDRICAL_SURFACE('',#357,4.0005);
#54=CYLINDRICAL_SURFACE('',#363,10.2105);
#55=CYLINDRICAL_SURFACE('',#367,8.636);
#56=CYLINDRICAL_SURFACE('',#371,10.2105);
#57=CYLINDRICAL_SURFACE('',#375,7.112);
#58=CYLINDRICAL_SURFACE('',#385,6.48949999999999);
#59=CYLINDRICAL_SURFACE('',#392,5.41200000000001);
#60=FACE_BOUND('',#89,.T.);
#61=FACE_BOUND('',#97,.T.);
#62=FACE_BOUND('',#100,.T.);
#63=FACE_BOUND('',#115,.T.);
#64=FACE_OUTER_BOUND('',#88,.T.);
#65=FACE_OUTER_BOUND('',#90,.T.);
#66=FACE_OUTER_BOUND('',#91,.T.);
#67=FACE_OUTER_BOUND('',#92,.T.);
#68=FACE_OUTER_BOUND('',#93,.T.);
#69=FACE_OUTER_BOUND('',#94,.T.);
#70=FACE_OUTER_BOUND('',#95,.T.);
#71=FACE_OUTER_BOUND('',#96,.T.);
#72=FACE_OUTER_BOUND('',#98,.T.);
#73=FACE_OUTER_BOUND('',#99,.T.);
#74=FACE_OUTER_BOUND('',#101,.T.);
#75=FACE_OUTER_BOUND('',#102,.T.);
#76=FACE_OUTER_BOUND('',#103,.T.);
#77=FACE_OUTER_BOUND('',#104,.T.);
#78=FACE_OUTER_BOUND('',#105,.T.);
#79=FACE_OUTER_BOUND('',#106,.T.);
#80=FACE_OUTER_BOUND('',#107,.T.);
#81=FACE_OUTER_BOUND('',#108,.T.);
#82=FACE_OUTER_BOUND('',#109,.T.);
#83=FACE_OUTER_BOUND('',#110,.T.);
#84=FACE_OUTER_BOUND('',#111,.T.);
#85=FACE_OUTER_BOUND('',#112,.T.);
#86=FACE_OUTER_BOUND('',#113,.T.);
#87=FACE_OUTER_BOUND('',#114,.T.);
#88=EDGE_LOOP('',(#213));
#89=EDGE_LOOP('',(#214));
#90=EDGE_LOOP('',(#215,#216,#217,#218));
#91=EDGE_LOOP('',(#219,#220,#221,#222));
#92=EDGE_LOOP('',(#223,#224,#225,#226,#227));
#93=EDGE_LOOP('',(#228,#229,#230,#231,#232));
#94=EDGE_LOOP('',(#233));
#95=EDGE_LOOP('',(#234,#235,#236,#237,#238));
#96=EDGE_LOOP('',(#239));
#97=EDGE_LOOP('',(#240));
#98=EDGE_LOOP('',(#241,#242,#243,#244));
#99=EDGE_LOOP('',(#245));
#100=EDGE_LOOP('',(#246));
#101=EDGE_LOOP('',(#247,#248,#249,#250));
#102=EDGE_LOOP('',(#251,#252,#253,#254));
#103=EDGE_LOOP('',(#255,#256,#257,#258));
#104=EDGE_LOOP('',(#259,#260,#261,#262));
#105=EDGE_LOOP('',(#263,#264,#265,#266));
#106=EDGE_LOOP('',(#267,#268,#269,#270,#271));
#107=EDGE_LOOP('',(#272));
#108=EDGE_LOOP('',(#273,#274,#275,#276,#277,#278));
#109=EDGE_LOOP('',(#279,#280,#281,#282,#283));
#110=EDGE_LOOP('',(#284,#285,#286,#287,#288));
#111=EDGE_LOOP('',(#289));
#112=EDGE_LOOP('',(#290));
#113=EDGE_LOOP('',(#291,#292,#293,#294));
#114=EDGE_LOOP('',(#295));
#115=EDGE_LOOP('',(#296));
#116=CIRCLE('',#344,7.112);
#117=CIRCLE('',#345,5.612);
#118=CIRCLE('',#347,5.61200000000002);
#119=CIRCLE('',#349,8.21050000000001);
#120=CIRCLE('',#351,8.2105);
#121=CIRCLE('',#352,8.2105);
#122=CIRCLE('',#354,2.);
#123=CIRCLE('',#355,6.2105);
#124=CIRCLE('',#358,4.0005);
#125=CIRCLE('',#359,4.0005);
#126=CIRCLE('',#360,4.0005);
#127=CIRCLE('',#362,10.2105);
#128=CIRCLE('',#364,10.2105);
#129=CIRCLE('',#366,8.636);
#130=CIRCLE('',#368,8.636);
#131=CIRCLE('',#370,10.2105);
#132=CIRCLE('',#372,10.2105);
#133=CIRCLE('',#374,7.112);
#134=CIRCLE('',#377,1.);
#135=CIRCLE('',#378,3.0005);
#136=CIRCLE('',#380,4.98421697320417);
#137=CIRCLE('',#381,100.);
#138=CIRCLE('',#382,6.48949999999999);
#139=CIRCLE('',#383,6.48949999999999);
#140=CIRCLE('',#384,4.98421697320417);
#141=CIRCLE('',#386,6.48949999999999);
#142=CIRCLE('',#388,1.47742075498125);
#143=CIRCLE('',#391,5.41200000000001);
#144=CIRCLE('',#393,5.41200000000001);
#145=VERTEX_POINT('',#516);
#146=VERTEX_POINT('',#518);
#147=VERTEX_POINT('',#521);
#148=VERTEX_POINT('',#525);
#149=VERTEX_POINT('',#529);
#150=VERTEX_POINT('',#531);
#151=VERTEX_POINT('',#535);
#152=VERTEX_POINT('',#540);
#153=VERTEX_POINT('',#541);
#154=VERTEX_POINT('',#543);
#155=VERTEX_POINT('',#548);
#156=VERTEX_POINT('',#551);
#157=VERTEX_POINT('',#555);
#158=VERTEX_POINT('',#558);
#159=VERTEX_POINT('',#562);
#160=VERTEX_POINT('',#566);
#161=VERTEX_POINT('',#570);
#162=VERTEX_POINT('',#576);
#163=VERTEX_POINT('',#607);
#164=VERTEX_POINT('',#608);
#165=VERTEX_POINT('',#610);
#166=VERTEX_POINT('',#612);
#167=VERTEX_POINT('',#617);
#168=VERTEX_POINT('',#621);
#169=VERTEX_POINT('',#626);
#170=VERTEX_POINT('',#629);
#171=EDGE_CURVE('',#145,#145,#116,.T.);
#172=EDGE_CURVE('',#146,#146,#117,.T.);
#173=EDGE_CURVE('',#146,#147,#25,.T.);
#174=EDGE_CURVE('',#147,#147,#118,.T.);
#175=EDGE_CURVE('',#147,#148,#26,.T.);
#176=EDGE_CURVE('',#148,#148,#119,.T.);
#177=EDGE_CURVE('',#148,#149,#27,.T.);
#178=EDGE_CURVE('',#150,#149,#120,.T.);
#179=EDGE_CURVE('',#149,#150,#121,.T.);
#180=EDGE_CURVE('',#150,#151,#122,.T.);
#181=EDGE_CURVE('',#151,#151,#123,.T.);
#182=EDGE_CURVE('',#152,#153,#124,.T.);
#183=EDGE_CURVE('',#152,#154,#28,.T.);
#184=EDGE_CURVE('',#154,#154,#125,.T.);
#185=EDGE_CURVE('',#153,#152,#126,.T.);
#186=EDGE_CURVE('',#155,#155,#127,.T.);
#187=EDGE_CURVE('',#156,#156,#128,.T.);
#188=EDGE_CURVE('',#156,#155,#29,.T.);
#189=EDGE_CURVE('',#157,#157,#129,.T.);
#190=EDGE_CURVE('',#158,#158,#130,.T.);
#191=EDGE_CURVE('',#158,#157,#30,.T.);
#192=EDGE_CURVE('',#159,#159,#131,.T.);
#193=EDGE_CURVE('',#159,#158,#31,.T.);
#194=EDGE_CURVE('',#160,#160,#132,.T.);
#195=EDGE_CURVE('',#160,#159,#32,.T.);
#196=EDGE_CURVE('',#161,#161,#133,.T.);
#197=EDGE_CURVE('',#161,#160,#33,.T.);
#198=EDGE_CURVE('',#145,#161,#34,.T.);
#199=EDGE_CURVE('',#153,#162,#134,.T.);
#200=EDGE_CURVE('',#162,#162,#135,.T.);
#201=EDGE_CURVE('',#163,#164,#136,.T.);
#202=EDGE_CURVE('',#164,#165,#137,.T.);
#203=EDGE_CURVE('',#165,#166,#138,.T.);
#204=EDGE_CURVE('',#166,#165,#139,.T.);
#205=EDGE_CURVE('',#164,#163,#140,.T.);
#206=EDGE_CURVE('',#166,#167,#35,.T.);
#207=EDGE_CURVE('',#167,#167,#141,.T.);
#208=EDGE_CURVE('',#168,#168,#142,.T.);
#209=EDGE_CURVE('',#168,#163,#36,.T.);
#210=EDGE_CURVE('',#169,#169,#143,.T.);
#211=EDGE_CURVE('',#170,#170,#144,.T.);
#212=EDGE_CURVE('',#170,#169,#37,.T.);
#213=ORIENTED_EDGE('',*,*,#171,.T.);
#214=ORIENTED_EDGE('',*,*,#172,.F.);
#215=ORIENTED_EDGE('',*,*,#172,.T.);
#216=ORIENTED_EDGE('',*,*,#173,.T.);
#217=ORIENTED_EDGE('',*,*,#174,.F.);
#218=ORIENTED_EDGE('',*,*,#173,.F.);
#219=ORIENTED_EDGE('',*,*,#174,.T.);
#220=ORIENTED_EDGE('',*,*,#175,.T.);
#221=ORIENTED_EDGE('',*,*,#176,.F.);
#222=ORIENTED_EDGE('',*,*,#175,.F.);
#223=ORIENTED_EDGE('',*,*,#176,.T.);
#224=ORIENTED_EDGE('',*,*,#177,.T.);
#225=ORIENTED_EDGE('',*,*,#178,.F.);
#226=ORIENTED_EDGE('',*,*,#179,.F.);
#227=ORIENTED_EDGE('',*,*,#177,.F.);
#228=ORIENTED_EDGE('',*,*,#178,.T.);
#229=ORIENTED_EDGE('',*,*,#179,.T.);
#230=ORIENTED_EDGE('',*,*,#180,.T.);
#231=ORIENTED_EDGE('',*,*,#181,.F.);
#232=ORIENTED_EDGE('',*,*,#180,.F.);
#233=ORIENTED_EDGE('',*,*,#181,.T.);
#234=ORIENTED_EDGE('',*,*,#182,.F.);
#235=ORIENTED_EDGE('',*,*,#183,.T.);
#236=ORIENTED_EDGE('',*,*,#184,.F.);
#237=ORIENTED_EDGE('',*,*,#183,.F.);
#238=ORIENTED_EDGE('',*,*,#185,.F.);
#239=ORIENTED_EDGE('',*,*,#186,.F.);
#240=ORIENTED_EDGE('',*,*,#184,.T.);
#241=ORIENTED_EDGE('',*,*,#187,.F.);
#242=ORIENTED_EDGE('',*,*,#188,.T.);
#243=ORIENTED_EDGE('',*,*,#186,.T.);
#244=ORIENTED_EDGE('',*,*,#188,.F.);
#245=ORIENTED_EDGE('',*,*,#187,.T.);
#246=ORIENTED_EDGE('',*,*,#189,.F.);
#247=ORIENTED_EDGE('',*,*,#190,.F.);
#248=ORIENTED_EDGE('',*,*,#191,.T.);
#249=ORIENTED_EDGE('',*,*,#189,.T.);
#250=ORIENTED_EDGE('',*,*,#191,.F.);
#251=ORIENTED_EDGE('',*,*,#192,.F.);
#252=ORIENTED_EDGE('',*,*,#193,.T.);
#253=ORIENTED_EDGE('',*,*,#190,.T.);
#254=ORIENTED_EDGE('',*,*,#193,.F.);
#255=ORIENTED_EDGE('',*,*,#194,.F.);
#256=ORIENTED_EDGE('',*,*,#195,.T.);
#257=ORIENTED_EDGE('',*,*,#192,.T.);
#258=ORIENTED_EDGE('',*,*,#195,.F.);
#259=ORIENTED_EDGE('',*,*,#196,.F.);
#260=ORIENTED_EDGE('',*,*,#197,.T.);
#261=ORIENTED_EDGE('',*,*,#194,.T.);
#262=ORIENTED_EDGE('',*,*,#197,.F.);
#263=ORIENTED_EDGE('',*,*,#171,.F.);
#264=ORIENTED_EDGE('',*,*,#198,.T.);
#265=ORIENTED_EDGE('',*,*,#196,.T.);
#266=ORIENTED_EDGE('',*,*,#198,.F.);
#267=ORIENTED_EDGE('',*,*,#182,.T.);
#268=ORIENTED_EDGE('',*,*,#199,.T.);
#269=ORIENTED_EDGE('',*,*,#200,.T.);
#270=ORIENTED_EDGE('',*,*,#199,.F.);
#271=ORIENTED_EDGE('',*,*,#185,.T.);
#272=ORIENTED_EDGE('',*,*,#200,.F.);
#273=ORIENTED_EDGE('',*,*,#201,.T.);
#274=ORIENTED_EDGE('',*,*,#202,.T.);
#275=ORIENTED_EDGE('',*,*,#203,.T.);
#276=ORIENTED_EDGE('',*,*,#204,.T.);
#277=ORIENTED_EDGE('',*,*,#202,.F.);
#278=ORIENTED_EDGE('',*,*,#205,.T.);
#279=ORIENTED_EDGE('',*,*,#203,.F.);
#280=ORIENTED_EDGE('',*,*,#204,.F.);
#281=ORIENTED_EDGE('',*,*,#206,.T.);
#282=ORIENTED_EDGE('',*,*,#207,.T.);
#283=ORIENTED_EDGE('',*,*,#206,.F.);
#284=ORIENTED_EDGE('',*,*,#208,.F.);
#285=ORIENTED_EDGE('',*,*,#209,.T.);
#286=ORIENTED_EDGE('',*,*,#205,.F.);
#287=ORIENTED_EDGE('',*,*,#201,.F.);
#288=ORIENTED_EDGE('',*,*,#209,.F.);
#289=ORIENTED_EDGE('',*,*,#208,.T.);
#290=ORIENTED_EDGE('',*,*,#210,.F.);
#291=ORIENTED_EDGE('',*,*,#211,.F.);
#292=ORIENTED_EDGE('',*,*,#212,.T.);
#293=ORIENTED_EDGE('',*,*,#210,.T.);
#294=ORIENTED_EDGE('',*,*,#212,.F.);
#295=ORIENTED_EDGE('',*,*,#207,.F.);
#296=ORIENTED_EDGE('',*,*,#211,.T.);
#297=PLANE('',#343);
#298=PLANE('',#356);
#299=PLANE('',#361);
#300=PLANE('',#365);
#301=PLANE('',#379);
#302=PLANE('',#390);
#303=PLANE('',#394);
#304=ADVANCED_FACE('',(#64,#60),#297,.T.);
#305=ADVANCED_FACE('',(#65),#51,.F.);
#306=ADVANCED_FACE('',(#66),#21,.F.);
#307=ADVANCED_FACE('',(#67),#52,.F.);
#308=ADVANCED_FACE('',(#68),#19,.F.);
#309=ADVANCED_FACE('',(#69),#298,.T.);
#310=ADVANCED_FACE('',(#70),#53,.F.);
#311=ADVANCED_FACE('',(#71,#61),#299,.T.);
#312=ADVANCED_FACE('',(#72),#54,.T.);
#313=ADVANCED_FACE('',(#73,#62),#300,.T.);
#314=ADVANCED_FACE('',(#74),#55,.T.);
#315=ADVANCED_FACE('',(#75),#22,.T.);
#316=ADVANCED_FACE('',(#76),#56,.T.);
#317=ADVANCED_FACE('',(#77),#23,.T.);
#318=ADVANCED_FACE('',(#78),#57,.T.);
#319=ADVANCED_FACE('',(#79),#20,.T.);
#320=ADVANCED_FACE('',(#80),#301,.T.);
#321=ADVANCED_FACE('',(#81),#14,.F.);
#322=ADVANCED_FACE('',(#82),#58,.T.);
#323=ADVANCED_FACE('',(#83),#24,.T.);
#324=ADVANCED_FACE('',(#84),#13,.T.);
#325=ADVANCED_FACE('',(#85),#302,.T.);
#326=ADVANCED_FACE('',(#86),#59,.T.);
#327=ADVANCED_FACE('',(#87,#63),#303,.T.);
#328=CLOSED_SHELL('',(#304,#305,#306,#307,#308,#309,#310,#311,#312,#313,
#314,#315,#316,#317,#318,#319,#320));
#329=CLOSED_SHELL('',(#321,#322,#323,#324,#325,#326,#327));
#330=DERIVED_UNIT_ELEMENT(#332,1.);
#331=DERIVED_UNIT_ELEMENT(#638,-3.);
#332=(
MASS_UNIT()
NAMED_UNIT(*)
SI_UNIT(.KILO.,.GRAM.)
);
#333=DERIVED_UNIT((#330,#331));
#334=MEASURE_REPRESENTATION_ITEM('density measure',
POSITIVE_RATIO_MEASURE(7850.),#333);
#335=PROPERTY_DEFINITION_REPRESENTATION(#340,#337);
#336=PROPERTY_DEFINITION_REPRESENTATION(#341,#338);
#337=REPRESENTATION('material name',(#339),#635);
#338=REPRESENTATION('density',(#334),#635);
#339=DESCRIPTIVE_REPRESENTATION_ITEM('\X2\92FC\X0\','\X2\92FC\X0\');
#340=PROPERTY_DEFINITION('material property','material name',#645);
#341=PROPERTY_DEFINITION('material property','density of part',#645);
#342=AXIS2_PLACEMENT_3D('',#514,#395,#396);
#343=AXIS2_PLACEMENT_3D('',#515,#397,#398);
#344=AXIS2_PLACEMENT_3D('',#517,#399,#400);
#345=AXIS2_PLACEMENT_3D('',#519,#401,#402);
#346=AXIS2_PLACEMENT_3D('',#520,#403,#404);
#347=AXIS2_PLACEMENT_3D('',#523,#406,#407);
#348=AXIS2_PLACEMENT_3D('',#524,#408,#409);
#349=AXIS2_PLACEMENT_3D('',#527,#411,#412);
#350=AXIS2_PLACEMENT_3D('',#528,#413,#414);
#351=AXIS2_PLACEMENT_3D('',#532,#416,#417);
#352=AXIS2_PLACEMENT_3D('',#533,#418,#419);
#353=AXIS2_PLACEMENT_3D('',#534,#420,#421);
#354=AXIS2_PLACEMENT_3D('',#536,#422,#423);
#355=AXIS2_PLACEMENT_3D('',#537,#424,#425);
#356=AXIS2_PLACEMENT_3D('',#538,#426,#427);
#357=AXIS2_PLACEMENT_3D('',#539,#428,#429);
#358=AXIS2_PLACEMENT_3D('',#542,#430,#431);
#359=AXIS2_PLACEMENT_3D('',#545,#433,#434);
#360=AXIS2_PLACEMENT_3D('',#546,#435,#436);
#361=AXIS2_PLACEMENT_3D('',#547,#437,#438);
#362=AXIS2_PLACEMENT_3D('',#549,#439,#440);
#363=AXIS2_PLACEMENT_3D('',#550,#441,#442);
#364=AXIS2_PLACEMENT_3D('',#552,#443,#444);
#365=AXIS2_PLACEMENT_3D('',#554,#446,#447);
#366=AXIS2_PLACEMENT_3D('',#556,#448,#449);
#367=AXIS2_PLACEMENT_3D('',#557,#450,#451);
#368=AXIS2_PLACEMENT_3D('',#559,#452,#453);
#369=AXIS2_PLACEMENT_3D('',#561,#455,#456);
#370=AXIS2_PLACEMENT_3D('',#563,#457,#458);
#371=AXIS2_PLACEMENT_3D('',#565,#460,#461);
#372=AXIS2_PLACEMENT_3D('',#567,#462,#463);
#373=AXIS2_PLACEMENT_3D('',#569,#465,#466);
#374=AXIS2_PLACEMENT_3D('',#571,#467,#468);
#375=AXIS2_PLACEMENT_3D('',#573,#470,#471);
#376=AXIS2_PLACEMENT_3D('',#575,#473,#474);
#377=AXIS2_PLACEMENT_3D('',#577,#475,#476);
#378=AXIS2_PLACEMENT_3D('',#578,#477,#478);
#379=AXIS2_PLACEMENT_3D('',#579,#479,#480);
#380=AXIS2_PLACEMENT_3D('',#609,#481,#482);
#381=AXIS2_PLACEMENT_3D('',#611,#483,#484);
#382=AXIS2_PLACEMENT_3D('',#613,#485,#486);
#383=AXIS2_PLACEMENT_3D('',#614,#487,#488);
#384=AXIS2_PLACEMENT_3D('',#615,#489,#490);
#385=AXIS2_PLACEMENT_3D('',#616,#491,#492);
#386=AXIS2_PLACEMENT_3D('',#619,#494,#495);
#387=AXIS2_PLACEMENT_3D('',#620,#496,#497);
#388=AXIS2_PLACEMENT_3D('',#622,#498,#499);
#389=AXIS2_PLACEMENT_3D('',#624,#501,#502);
#390=AXIS2_PLACEMENT_3D('',#625,#503,#504);
#391=AXIS2_PLACEMENT_3D('',#627,#505,#506);
#392=AXIS2_PLACEMENT_3D('',#628,#507,#508);
#393=AXIS2_PLACEMENT_3D('',#630,#509,#510);
#394=AXIS2_PLACEMENT_3D('',#632,#512,#513);
#395=DIRECTION('axis',(0.,0.,1.));
#396=DIRECTION('refdir',(1.,0.,0.));
#397=DIRECTION('center_axis',(6.09403855832172E-17,1.,0.));
#398=DIRECTION('ref_axis',(0.,0.,1.));
#399=DIRECTION('center_axis',(6.09403855832172E-17,1.,0.));
#400=DIRECTION('ref_axis',(1.,-6.09403855832172E-17,0.));
#401=DIRECTION('center_axis',(6.09403855832172E-17,1.,0.));
#402=DIRECTION('ref_axis',(1.,-6.09403855832172E-17,0.));
#403=DIRECTION('center_axis',(6.09403855832172E-17,1.,0.));
#404=DIRECTION('ref_axis',(-1.,0.,0.));
#405=DIRECTION('',(-6.09403855832172E-17,-1.,0.));
#406=DIRECTION('center_axis',(6.09403855832172E-17,1.,0.));
#407=DIRECTION('ref_axis',(1.,-6.09403855832172E-17,0.));
#408=DIRECTION('center_axis',(-6.09403855832172E-17,-1.,0.));
#409=DIRECTION('ref_axis',(-1.,0.,0.));
#410=DIRECTION('',(0.371442347381409,-0.928456020806472,-4.54885681788422E-17));
#411=DIRECTION('center_axis',(6.09403855832172E-17,1.,0.));
#412=DIRECTION('ref_axis',(1.,-6.09403855832172E-17,0.));
#413=DIRECTION('center_axis',(6.09403855832172E-17,1.,0.));
#414=DIRECTION('ref_axis',(-1.,0.,0.));
#415=DIRECTION('',(-6.09403855832172E-17,-1.,0.));
#416=DIRECTION('center_axis',(6.09403855832172E-17,1.,0.));
#417=DIRECTION('ref_axis',(1.,-6.09403855832172E-17,0.));
#418=DIRECTION('center_axis',(6.09403855832172E-17,1.,0.));
#419=DIRECTION('ref_axis',(1.,-6.09403855832172E-17,0.));
#420=DIRECTION('center_axis',(6.09403855832172E-17,1.,0.));
#421=DIRECTION('ref_axis',(0.,0.,1.));
#422=DIRECTION('center_axis',(-1.,6.09403855832172E-17,1.22464679914735E-16));
#423=DIRECTION('ref_axis',(-1.22464679914735E-16,0.,-1.));
#424=DIRECTION('center_axis',(6.09403855832172E-17,1.,0.));
#425=DIRECTION('ref_axis',(1.,-6.09403855832172E-17,0.));
#426=DIRECTION('center_axis',(6.09403855832172E-17,1.,0.));
#427=DIRECTION('ref_axis',(0.,0.,1.));
#428=DIRECTION('center_axis',(6.09403855832172E-17,1.,0.));
#429=DIRECTION('ref_axis',(-1.,0.,0.));
#430=DIRECTION('center_axis',(-6.09403855832172E-17,-1.,0.));
#431=DIRECTION('ref_axis',(1.,-6.93802665057591E-17,0.));
#432=DIRECTION('',(-6.09403855832172E-17,-1.,0.));
#433=DIRECTION('center_axis',(6.09403855832172E-17,1.,0.));
#434=DIRECTION('ref_axis',(1.,-6.09403855832172E-17,0.));
#435=DIRECTION('center_axis',(-6.09403855832172E-17,-1.,0.));
#436=DIRECTION('ref_axis',(1.,-6.93802665057591E-17,0.));
#437=DIRECTION('center_axis',(-6.09403855832172E-17,-1.,0.));
#438=DIRECTION('ref_axis',(0.,0.,-1.));
#439=DIRECTION('center_axis',(6.09403855832172E-17,1.,0.));
#440=DIRECTION('ref_axis',(1.,-6.09403855832172E-17,0.));
#441=DIRECTION('center_axis',(6.09403855832172E-17,1.,0.));
#442=DIRECTION('ref_axis',(-1.,0.,0.));
#443=DIRECTION('center_axis',(6.09403855832172E-17,1.,0.));
#444=DIRECTION('ref_axis',(1.,-6.09403855832172E-17,0.));
#445=DIRECTION('',(-6.09403855832172E-17,-1.,0.));
#446=DIRECTION('center_axis',(6.09403855832172E-17,1.,0.));
#447=DIRECTION('ref_axis',(0.,0.,1.));
#448=DIRECTION('center_axis',(6.09403855832172E-17,1.,0.));
#449=DIRECTION('ref_axis',(1.,-6.09403855832172E-17,0.));
#450=DIRECTION('center_axis',(6.09403855832172E-17,1.,0.));
#451=DIRECTION('ref_axis',(-1.,0.,0.));
#452=DIRECTION('center_axis',(6.09403855832172E-17,1.,0.));
#453=DIRECTION('ref_axis',(1.,-6.09403855832172E-17,0.));
#454=DIRECTION('',(-6.09403855832172E-17,-1.,0.));
#455=DIRECTION('center_axis',(6.09403855832172E-17,1.,0.));
#456=DIRECTION('ref_axis',(-1.,0.,0.));
#457=DIRECTION('center_axis',(6.09403855832172E-17,1.,0.));
#458=DIRECTION('ref_axis',(1.,-6.09403855832172E-17,0.));
#459=DIRECTION('',(-0.642787609686538,-0.766044443118979,7.87187788734197E-17));
#460=DIRECTION('center_axis',(6.09403855832172E-17,1.,0.));
#461=DIRECTION('ref_axis',(-1.,0.,0.));
#462=DIRECTION('center_axis',(6.09403855832172E-17,1.,0.));
#463=DIRECTION('ref_axis',(1.,-6.09403855832172E-17,0.));
#464=DIRECTION('',(-6.09403855832172E-17,-1.,0.));
#465=DIRECTION('center_axis',(-6.09403855832172E-17,-1.,0.));
#466=DIRECTION('ref_axis',(-1.,0.,0.));
#467=DIRECTION('center_axis',(6.09403855832172E-17,1.,0.));
#468=DIRECTION('ref_axis',(1.,-6.09403855832172E-17,0.));
#469=DIRECTION('',(0.371442347381392,-0.928456020806479,-4.54885681788401E-17));
#470=DIRECTION('center_axis',(6.09403855832172E-17,1.,0.));
#471=DIRECTION('ref_axis',(-1.,0.,0.));
#472=DIRECTION('',(-6.09403855832172E-17,-1.,0.));
#473=DIRECTION('center_axis',(6.09403855832172E-17,1.,0.));
#474=DIRECTION('ref_axis',(0.,0.,1.));
#475=DIRECTION('center_axis',(-1.,6.09403855832172E-17,1.22464679914735E-16));
#476=DIRECTION('ref_axis',(-1.22464679914735E-16,0.,-1.));
#477=DIRECTION('center_axis',(6.09403855832172E-17,1.,0.));
#478=DIRECTION('ref_axis',(1.,-6.09403855832172E-17,0.));
#479=DIRECTION('center_axis',(-6.09403855832172E-17,-1.,0.));
#480=DIRECTION('ref_axis',(0.,0.,-1.));
#481=DIRECTION('center_axis',(-5.92788984019806E-17,-1.,0.));
#482=DIRECTION('ref_axis',(1.,0.,0.));
#483=DIRECTION('center_axis',(-1.,5.92788984019806E-17,1.22464679914735E-16));
#484=DIRECTION('ref_axis',(-1.22464679914735E-16,0.,-1.));
#485=DIRECTION('center_axis',(5.92788984019806E-17,1.,0.));
#486=DIRECTION('ref_axis',(1.,-5.92788984019806E-17,0.));
#487=DIRECTION('center_axis',(5.92788984019806E-17,1.,0.));
#488=DIRECTION('ref_axis',(1.,-5.92788984019806E-17,0.));
#489=DIRECTION('center_axis',(-5.92788984019806E-17,-1.,0.));
#490=DIRECTION('ref_axis',(1.,0.,0.));
#491=DIRECTION('center_axis',(5.92788984019806E-17,1.,0.));
#492=DIRECTION('ref_axis',(-1.,0.,0.));
#493=DIRECTION('',(-5.92788984019806E-17,-1.,0.));
#494=DIRECTION('center_axis',(5.92788984019806E-17,1.,0.));
#495=DIRECTION('ref_axis',(1.,-5.92788984019806E-17,0.));
#496=DIRECTION('center_axis',(-5.92788984019806E-17,-1.,0.));
#497=DIRECTION('ref_axis',(-1.,0.,0.));
#498=DIRECTION('center_axis',(5.92788984019806E-17,1.,0.));
#499=DIRECTION('ref_axis',(1.,-5.92788984019806E-17,0.));
#500=DIRECTION('',(0.17285564161126,-0.984947169732042,-2.11687108213792E-17));
#501=DIRECTION('center_axis',(6.12323399597849E-17,0.,1.));
#502=DIRECTION('ref_axis',(1.,0.,0.));
#503=DIRECTION('center_axis',(-5.92788984019806E-17,-1.,0.));
#504=DIRECTION('ref_axis',(0.,0.,-1.));
#505=DIRECTION('center_axis',(5.92788984019806E-17,1.,0.));
#506=DIRECTION('ref_axis',(-1.,0.,0.));
#507=DIRECTION('center_axis',(5.92788984019806E-17,1.,0.));
#508=DIRECTION('ref_axis',(-1.,0.,0.));
#509=DIRECTION('center_axis',(5.92788984019806E-17,1.,0.));
#510=DIRECTION('ref_axis',(-1.,0.,0.));
#511=DIRECTION('',(-5.92788984019806E-17,-1.,0.));
#512=DIRECTION('center_axis',(-5.92788984019806E-17,-1.,0.));
#513=DIRECTION('ref_axis',(0.,0.,-1.));
#514=CARTESIAN_POINT('',(0.,0.,0.));
#515=CARTESIAN_POINT('Origin',(-5.61199999999999,100.2,0.));
#516=CARTESIAN_POINT('',(7.11200000000001,100.2,-8.70968803553598E-16));
#517=CARTESIAN_POINT('Origin',(6.10622663543836E-15,100.2,0.));
#518=CARTESIAN_POINT('',(5.61200000000001,100.2,-6.87271783681496E-16));
#519=CARTESIAN_POINT('Origin',(6.10622663543836E-15,100.2,0.));
#520=CARTESIAN_POINT('Origin',(5.56574572152533E-15,91.3309895935106,0.));
#521=CARTESIAN_POINT('',(5.61200000000001,82.4619791870212,-6.87271783681496E-16));
#522=CARTESIAN_POINT('',(5.61200000000001,91.3309895935106,-6.87271783681496E-16));
#523=CARTESIAN_POINT('Origin',(5.0252648076123E-15,82.4619791870212,0.));
#524=CARTESIAN_POINT('Origin',(4.82735475927284E-15,79.2143783317689,0.));
#525=CARTESIAN_POINT('',(8.21050000000001,75.9667774765165,-1.00549625443994E-15));
#526=CARTESIAN_POINT('',(6.91125000000001,79.2143783317689,-8.46384019060716E-16));
#527=CARTESIAN_POINT('Origin',(4.62944471093337E-15,75.9667774765165,0.));
#528=CARTESIAN_POINT('Origin',(2.5968890172782E-15,42.6135967540281,0.));
#529=CARTESIAN_POINT('',(8.2105,9.26041603153958,-1.00549625443993E-15));
#530=CARTESIAN_POINT('',(8.21050000000001,42.6135967540281,-1.00549625443993E-15));
#531=CARTESIAN_POINT('',(-4.41162930816907E-16,9.26041603153958,-8.2105));
#532=CARTESIAN_POINT('Origin',(5.64333323623028E-16,9.26041603153958,0.));
#533=CARTESIAN_POINT('Origin',(5.64333323623028E-16,9.26041603153958,0.));
#534=CARTESIAN_POINT('Origin',(5.64333323623028E-16,9.26041603153958,0.));
#535=CARTESIAN_POINT('',(-3.1811434215387E-16,7.26041603153959,-6.2105));
#536=CARTESIAN_POINT('Origin',(-1.96233570987436E-16,9.26041603153958,-6.2105));
#537=CARTESIAN_POINT('Origin',(4.42452552456594E-16,7.26041603153959,0.));
#538=CARTESIAN_POINT('Origin',(0.,7.26041603153959,0.));
#539=CARTESIAN_POINT('Origin',(1.6405151799002E-16,2.692,0.));
#540=CARTESIAN_POINT('',(4.0005,1.,-4.89919951998899E-16));
#541=CARTESIAN_POINT('',(-4.28979566415681E-16,1.,-4.0005));
#542=CARTESIAN_POINT('Origin',(6.09403855832172E-17,1.,0.));
#543=CARTESIAN_POINT('',(4.0005,0.,-4.89919951998899E-16));
#544=CARTESIAN_POINT('',(4.0005,2.692,-4.89919951998899E-16));
#545=CARTESIAN_POINT('Origin',(0.,0.,0.));
#546=CARTESIAN_POINT('Origin',(6.09403855832172E-17,1.,0.));
#547=CARTESIAN_POINT('Origin',(-10.2105,0.,0.));
#548=CARTESIAN_POINT('',(10.2105,-4.16333634234434E-16,-1.25042561426941E-15));
#549=CARTESIAN_POINT('Origin',(0.,0.,0.));
#550=CARTESIAN_POINT('Origin',(6.42311664047101E-17,1.05399999999999,0.));
#551=CARTESIAN_POINT('',(10.2105,2.10800000000001,-1.25042561426941E-15));
#552=CARTESIAN_POINT('Origin',(1.28462332809422E-16,2.10800000000001,0.));
#553=CARTESIAN_POINT('',(10.2105,1.05399999999999,-1.25042561426941E-15));
#554=CARTESIAN_POINT('Origin',(-8.636,2.108,0.));
#555=CARTESIAN_POINT('',(8.636,2.10800000000001,-1.05760497574365E-15));
#556=CARTESIAN_POINT('Origin',(1.28462332809422E-16,2.10800000000001,0.));
#557=CARTESIAN_POINT('Origin',(2.28282684394731E-16,3.74600000000001,0.));
#558=CARTESIAN_POINT('',(8.636,5.38399999999999,-1.05760497574365E-15));
#559=CARTESIAN_POINT('Origin',(3.2810303598004E-16,5.38399999999999,0.));
#560=CARTESIAN_POINT('',(8.636,3.74600000000001,-1.05760497574365E-15));
#561=CARTESIAN_POINT('Origin',(3.85277794218317E-16,6.32220801576979,0.));
#562=CARTESIAN_POINT('',(10.2105,7.26041603153959,-1.25042561426941E-15));
#563=CARTESIAN_POINT('Origin',(4.42452552456594E-16,7.26041603153959,0.));
#564=CARTESIAN_POINT('',(9.42325,6.32220801576979,-1.15401529500653E-15));
#565=CARTESIAN_POINT('Origin',(2.5476864362532E-15,41.8062080157698,0.));
#566=CARTESIAN_POINT('',(10.2105,76.352,-1.25042561426941E-15));
#567=CARTESIAN_POINT('Origin',(4.6529203200498E-15,76.352,0.));
#568=CARTESIAN_POINT('',(10.2105,41.8062080157698,-1.25042561426941E-15));
#569=CARTESIAN_POINT('Origin',(4.88891196322081E-15,80.2245,0.));
#570=CARTESIAN_POINT('',(7.112,84.097,-8.70968803553597E-16));
#571=CARTESIAN_POINT('Origin',(5.12490360639181E-15,84.097,0.));
#572=CARTESIAN_POINT('',(8.66125000000001,80.2245,-1.0606972089115E-15));
#573=CARTESIAN_POINT('Origin',(5.61556512091509E-15,92.1485,0.));
#574=CARTESIAN_POINT('',(7.11200000000001,92.1485,-8.70968803553598E-16));
#575=CARTESIAN_POINT('Origin',(6.09403855832172E-17,1.,0.));
#576=CARTESIAN_POINT('',(-3.67455272084163E-16,-2.77555756156289E-16,-3.0005));
#577=CARTESIAN_POINT('Origin',(-3.06514886500946E-16,1.,-3.0005));
#578=CARTESIAN_POINT('Origin',(5.39260384428426E-32,-2.77555756156289E-16,
0.));
#579=CARTESIAN_POINT('Origin',(-4.0005,0.,0.));
#580=CARTESIAN_POINT('Ctrl Pts',(6.18279573343136E-15,101.491675453781,
-6.48949999999999));
#581=CARTESIAN_POINT('Ctrl Pts',(-6.48949999999998,101.491675453781,-6.48949999999999));
#582=CARTESIAN_POINT('Ctrl Pts',(-6.48949999999999,101.491675453781,0.));
#583=CARTESIAN_POINT('Ctrl Pts',(-6.48949999999998,101.491675453781,6.48949999999999));
#584=CARTESIAN_POINT('Ctrl Pts',(6.18279573343136E-15,101.491675453781,
6.48949999999999));
#585=CARTESIAN_POINT('Ctrl Pts',(6.4895,101.491675453781,6.48949999999999));
#586=CARTESIAN_POINT('Ctrl Pts',(6.4895,101.491675453781,0.));
#587=CARTESIAN_POINT('Ctrl Pts',(6.4895,101.491675453781,-6.48949999999999));
#588=CARTESIAN_POINT('Ctrl Pts',(6.18279573343136E-15,101.491675453781,
-6.48949999999999));
#589=CARTESIAN_POINT('Ctrl Pts',(6.69901561945817E-15,110.2,-6.48949999999999));
#590=CARTESIAN_POINT('Ctrl Pts',(-6.48949999999998,110.2,-6.48949999999999));
#591=CARTESIAN_POINT('Ctrl Pts',(-6.48949999999998,110.2,0.));
#592=CARTESIAN_POINT('Ctrl Pts',(-6.48949999999998,110.2,6.48949999999999));
#593=CARTESIAN_POINT('Ctrl Pts',(6.69901561945817E-15,110.2,6.48949999999999));
#594=CARTESIAN_POINT('Ctrl Pts',(6.4895,110.2,6.48949999999999));
#595=CARTESIAN_POINT('Ctrl Pts',(6.4895,110.2,0.));
#596=CARTESIAN_POINT('Ctrl Pts',(6.4895,110.2,-6.48949999999999));
#597=CARTESIAN_POINT('Ctrl Pts',(6.69901561945817E-15,110.2,-6.48949999999999));
#598=CARTESIAN_POINT('Ctrl Pts',(7.20746493515966E-15,118.777239614907,
-4.98421697320417));
#599=CARTESIAN_POINT('Ctrl Pts',(-4.98421697320416,118.777239614907,-4.98421697320417));
#600=CARTESIAN_POINT('Ctrl Pts',(-4.98421697320416,118.777239614907,0.));
#601=CARTESIAN_POINT('Ctrl Pts',(-4.98421697320416,118.777239614907,4.98421697320417));
#602=CARTESIAN_POINT('Ctrl Pts',(7.20746493515966E-15,118.777239614907,
4.98421697320417));
#603=CARTESIAN_POINT('Ctrl Pts',(4.98421697320418,118.777239614907,4.98421697320417));
#604=CARTESIAN_POINT('Ctrl Pts',(4.98421697320418,118.777239614907,0.));
#605=CARTESIAN_POINT('Ctrl Pts',(4.98421697320418,118.777239614907,-4.98421697320417));
#606=CARTESIAN_POINT('Ctrl Pts',(7.20746493515966E-15,118.777239614907,
-4.98421697320417));
#607=CARTESIAN_POINT('',(4.98421697320419,118.777239614907,-6.10390536249041E-16));
#608=CARTESIAN_POINT('',(6.59707439891062E-15,118.777239614907,-4.98421697320417));
#609=CARTESIAN_POINT('Origin',(7.20746493515966E-15,118.777239614907,0.));
#610=CARTESIAN_POINT('',(5.38806119312468E-15,101.491675453781,-6.48949999999999));
#611=CARTESIAN_POINT('Origin',(1.76345291845982E-14,101.491675453781,93.5105));
#612=CARTESIAN_POINT('',(6.4895,101.491675453781,-7.94734540306674E-16));
#613=CARTESIAN_POINT('Origin',(6.18279573343136E-15,101.491675453781,0.));
#614=CARTESIAN_POINT('Origin',(6.18279573343136E-15,101.491675453781,0.));
#615=CARTESIAN_POINT('Origin',(7.20746493515966E-15,118.777239614907,0.));
#616=CARTESIAN_POINT('Origin',(6.40262112744826E-15,105.2,0.));
#617=CARTESIAN_POINT('',(6.4895,100.2,-7.94734540306674E-16));
#618=CARTESIAN_POINT('',(6.4895,105.2,-7.94734540306674E-16));
#619=CARTESIAN_POINT('Origin',(6.10622663543836E-15,100.2,0.));
#620=CARTESIAN_POINT('Origin',(7.54549705085915E-15,124.479641731208,0.));
#621=CARTESIAN_POINT('',(1.47742075498126,138.759283462417,-1.80931859858166E-16));
#622=CARTESIAN_POINT('Origin',(8.39197848226014E-15,138.759283462417,0.));
#623=CARTESIAN_POINT('',(3.98346037749063,124.479641731208,-4.8783320008242E-16));
#624=CARTESIAN_POINT('Origin',(-3.82200527634833E-10,138.5,0.));
#625=CARTESIAN_POINT('Origin',(-5.61200000000001,82.4619791870212,0.));
#626=CARTESIAN_POINT('',(5.41200000000001,82.4619791870212,-6.62778847698549E-16));
#627=CARTESIAN_POINT('Origin',(5.05473630181357E-15,82.4619791870212,0.));
#628=CARTESIAN_POINT('Origin',(5.58048146862597E-15,91.3309895935106,0.));
#629=CARTESIAN_POINT('',(5.41200000000002,100.2,-6.62778847698549E-16));
#630=CARTESIAN_POINT('Origin',(6.10622663543836E-15,100.2,0.));
#631=CARTESIAN_POINT('',(5.41200000000001,91.3309895935106,-6.62778847698549E-16));
#632=CARTESIAN_POINT('Origin',(-6.48949999999999,100.2,0.));
#633=UNCERTAINTY_MEASURE_WITH_UNIT(LENGTH_MEASURE(0.01),#637,
'DISTANCE_ACCURACY_VALUE',
'Maximum model space distance between geometric entities at asserted c
onnectivities');
#634=UNCERTAINTY_MEASURE_WITH_UNIT(LENGTH_MEASURE(0.01),#637,
'DISTANCE_ACCURACY_VALUE',
'Maximum model space distance between geometric entities at asserted c
onnectivities');
#635=(
GEOMETRIC_REPRESENTATION_CONTEXT(3)
GLOBAL_UNCERTAINTY_ASSIGNED_CONTEXT((#633))
GLOBAL_UNIT_ASSIGNED_CONTEXT((#637,#639,#640))
REPRESENTATION_CONTEXT('','3D')
);
#636=(
GEOMETRIC_REPRESENTATION_CONTEXT(3)
GLOBAL_UNCERTAINTY_ASSIGNED_CONTEXT((#634))
GLOBAL_UNIT_ASSIGNED_CONTEXT((#637,#639,#640))
REPRESENTATION_CONTEXT('','3D')
);
#637=(
LENGTH_UNIT()
NAMED_UNIT(*)
SI_UNIT(.MILLI.,.METRE.)
);
#638=(
LENGTH_UNIT()
NAMED_UNIT(*)
SI_UNIT($,.METRE.)
);
#639=(
NAMED_UNIT(*)
PLANE_ANGLE_UNIT()
SI_UNIT($,.RADIAN.)
);
#640=(
NAMED_UNIT(*)
SI_UNIT($,.STERADIAN.)
SOLID_ANGLE_UNIT()
);
#641=SHAPE_DEFINITION_REPRESENTATION(#642,#643);
#642=PRODUCT_DEFINITION_SHAPE('',$,#645);
#643=SHAPE_REPRESENTATION('',(#342),#635);
#644=PRODUCT_DEFINITION_CONTEXT('part definition',#649,'design');
#645=PRODUCT_DEFINITION('12.7x99mm_FMJ','12.7x99mm_FMJ v4',#646,#644);
#646=PRODUCT_DEFINITION_FORMATION('',$,#651);
#647=PRODUCT_RELATED_PRODUCT_CATEGORY('12.7x99mm_FMJ v4',
'12.7x99mm_FMJ v4',(#651));
#648=APPLICATION_PROTOCOL_DEFINITION('international standard',
'automotive_design',2009,#649);
#649=APPLICATION_CONTEXT(
'Core Data for Automotive Mechanical Design Process');
#650=PRODUCT_CONTEXT('part definition',#649,'mechanical');
#651=PRODUCT('12.7x99mm_FMJ','12.7x99mm_FMJ v4',$,(#650));
#652=PRESENTATION_STYLE_ASSIGNMENT((#655));
#653=PRESENTATION_STYLE_ASSIGNMENT((#656));
#654=PRESENTATION_STYLE_ASSIGNMENT((#657));
#655=SURFACE_STYLE_USAGE(.BOTH.,#658);
#656=SURFACE_STYLE_USAGE(.BOTH.,#659);
#657=SURFACE_STYLE_USAGE(.BOTH.,#660);
#658=SURFACE_SIDE_STYLE('',(#661));
#659=SURFACE_SIDE_STYLE('',(#662));
#660=SURFACE_SIDE_STYLE('',(#663));
#661=SURFACE_STYLE_FILL_AREA(#664);
#662=SURFACE_STYLE_FILL_AREA(#665);
#663=SURFACE_STYLE_FILL_AREA(#666);
#664=FILL_AREA_STYLE('\X2\92FC\X0\ - \X2\30B530C630F3\X0\',(#667));
#665=FILL_AREA_STYLE('\X2\771F936E\X0\ - \X2\53E43044\X0\ - \X2\30DE30C330C8\X0\',
(#668));
#666=FILL_AREA_STYLE('\X2\9285\X0\ - \X2\3064308451FA3057\X0\',(#669));
#667=FILL_AREA_STYLE_COLOUR('\X2\92FC\X0\ - \X2\30B530C630F3\X0\',#670);
#668=FILL_AREA_STYLE_COLOUR('\X2\771F936E\X0\ - \X2\53E43044\X0\ - \X2\30DE30C330C8\X0\',
#671);
#669=FILL_AREA_STYLE_COLOUR('\X2\9285\X0\ - \X2\3064308451FA3057\X0\',#672);
#670=COLOUR_RGB('\X2\92FC\X0\ - \X2\30B530C630F3\X0\',0.627450980392157,
0.627450980392157,0.627450980392157);
#671=COLOUR_RGB('\X2\771F936E\X0\ - \X2\53E43044\X0\ - \X2\30DE30C330C8\X0\',
0.,0.,0.);
#672=COLOUR_RGB('\X2\9285\X0\ - \X2\3064308451FA3057\X0\',0.788235294117647,
0.615686274509804,0.56078431372549);
ENDSEC;
END-ISO-10303-21;
