ISO-10303-21;
HEADER;
/* Generated by software containing ST-Developer
 * from STEP Tools, Inc. (www.steptools.com) 
 */

FILE_DESCRIPTION(
/* description */ (''),
/* implementation_level */ '2;1');

FILE_NAME(
/* name */ '45ACP_FMJ_mk1_v1.step',
/* time_stamp */ '2026-05-11T15:21:04+09:00',
/* author */ (''),
/* organization */ (''),
/* preprocessor_version */ 'ST-DEVELOPER v20.1',
/* originating_system */ 'Autodesk Translation Framework v15.8.0.0',
/* authorisation */ '');

FILE_SCHEMA (('AUTOMOTIVE_DESIGN { 1 0 10303 214 3 1 1 }'));
ENDSEC;

DATA;
#10=MECHANICAL_DESIGN_GEOMETRIC_PRESENTATION_REPRESENTATION('',(#15,#16),
#428);
#11=SHAPE_REPRESENTATION_RELATIONSHIP('SRR','None',#435,#12);
#12=ADVANCED_BREP_SHAPE_REPRESENTATION('',(#17,#18),#427);
#13=ELLIPSE('',#264,9.58,5.74);
#14=(
BOUNDED_SURFACE()
B_SPLINE_SURFACE(2,2,((#396,#397,#398,#399,#400,#401,#402,#403,#404),(#405,
#406,#407,#408,#409,#410,#411,#412,#413),(#414,#415,#416,#417,#418,#419,
#420,#421,#422)),.UNSPECIFIED.,.F.,.T.,.F.)
B_SPLINE_SURFACE_WITH_KNOTS((3,3),(3,2,2,2,3),(0.,1.5707963267949),(0.,
1.5707963267949,3.14159265358979,4.71238898038469,6.28318530717959),
 .UNSPECIFIED.)
GEOMETRIC_REPRESENTATION_ITEM()
RATIONAL_B_SPLINE_SURFACE(((1.,0.707106781186548,1.,0.707106781186548,1.,
0.707106781186548,1.,0.707106781186548,1.),(0.707106781186548,0.5,0.707106781186548,
0.5,0.707106781186548,0.5,0.707106781186548,0.5,0.707106781186548),(1.,
0.707106781186548,1.,0.707106781186548,1.,0.707106781186548,1.,0.707106781186548,
1.)))
REPRESENTATION_ITEM('')
SURFACE()
);
#15=STYLED_ITEM('',(#444),#17);
#16=STYLED_ITEM('',(#445),#18);
#17=MANIFOLD_SOLID_BREP('\X2\30DC30C730A3\X0\1',#218);
#18=MANIFOLD_SOLID_BREP('\X2\30DC30C730A3\X0\2',#219);
#19=FACE_BOUND('',#72,.T.);
#20=FACE_BOUND('',#77,.T.);
#21=FACE_BOUND('',#81,.T.);
#22=FACE_BOUND('',#86,.T.);
#23=CONICAL_SURFACE('',#239,2.4,0.785398163397448);
#24=CONICAL_SURFACE('',#245,5.5628552626802,0.453785605518525);
#25=CONICAL_SURFACE('',#248,6.0253552626802,0.00217703000241107);
#26=CONICAL_SURFACE('',#251,5.823651878719,0.95993108859688);
#27=LINE('',#348,#36);
#28=LINE('',#354,#37);
#29=LINE('',#361,#38);
#30=LINE('',#366,#39);
#31=LINE('',#371,#40);
#32=LINE('',#376,#41);
#33=LINE('',#380,#42);
#34=LINE('',#385,#43);
#35=LINE('',#390,#44);
#36=VECTOR('',#275,2.25);
#37=VECTOR('',#284,2.4);
#38=VECTOR('',#293,5.);
#39=VECTOR('',#298,5.5628552626802);
#40=VECTOR('',#305,6.0253552626802);
#41=VECTOR('',#312,5.823651878719);
#42=VECTOR('',#317,6.095);
#43=VECTOR('',#324,5.08);
#44=VECTOR('',#329,4.8);
#45=CYLINDRICAL_SURFACE('',#235,2.25);
#46=CYLINDRICAL_SURFACE('',#243,5.);
#47=CYLINDRICAL_SURFACE('',#253,6.095);
#48=CYLINDRICAL_SURFACE('',#257,5.08);
#49=CYLINDRICAL_SURFACE('',#258,4.8);
#50=FACE_OUTER_BOUND('',#67,.T.);
#51=FACE_OUTER_BOUND('',#68,.T.);
#52=FACE_OUTER_BOUND('',#69,.T.);
#53=FACE_OUTER_BOUND('',#70,.T.);
#54=FACE_OUTER_BOUND('',#71,.T.);
#55=FACE_OUTER_BOUND('',#73,.T.);
#56=FACE_OUTER_BOUND('',#74,.T.);
#57=FACE_OUTER_BOUND('',#75,.T.);
#58=FACE_OUTER_BOUND('',#76,.T.);
#59=FACE_OUTER_BOUND('',#78,.T.);
#60=FACE_OUTER_BOUND('',#79,.T.);
#61=FACE_OUTER_BOUND('',#80,.T.);
#62=FACE_OUTER_BOUND('',#82,.T.);
#63=FACE_OUTER_BOUND('',#83,.T.);
#64=FACE_OUTER_BOUND('',#84,.T.);
#65=FACE_OUTER_BOUND('',#85,.T.);
#66=FACE_OUTER_BOUND('',#87,.T.);
#67=EDGE_LOOP('',(#144));
#68=EDGE_LOOP('',(#145,#146,#147,#148));
#69=EDGE_LOOP('',(#149));
#70=EDGE_LOOP('',(#150,#151,#152,#153));
#71=EDGE_LOOP('',(#154));
#72=EDGE_LOOP('',(#155));
#73=EDGE_LOOP('',(#156,#157,#158,#159));
#74=EDGE_LOOP('',(#160,#161,#162,#163));
#75=EDGE_LOOP('',(#164,#165,#166,#167));
#76=EDGE_LOOP('',(#168));
#77=EDGE_LOOP('',(#169));
#78=EDGE_LOOP('',(#170,#171,#172,#173));
#79=EDGE_LOOP('',(#174,#175,#176,#177));
#80=EDGE_LOOP('',(#178));
#81=EDGE_LOOP('',(#179));
#82=EDGE_LOOP('',(#180,#181,#182,#183));
#83=EDGE_LOOP('',(#184,#185,#186,#187));
#84=EDGE_LOOP('',(#188));
#85=EDGE_LOOP('',(#189));
#86=EDGE_LOOP('',(#190));
#87=EDGE_LOOP('',(#191,#192,#193));
#88=CIRCLE('',#234,5.);
#89=CIRCLE('',#236,2.25);
#90=CIRCLE('',#237,2.25);
#91=CIRCLE('',#240,2.55);
#92=CIRCLE('',#242,5.552303757438);
#93=CIRCLE('',#244,5.);
#94=CIRCLE('',#246,6.0457105253604);
#95=CIRCLE('',#247,5.08);
#96=CIRCLE('',#249,6.005);
#97=CIRCLE('',#252,6.095);
#98=CIRCLE('',#254,6.095);
#99=CIRCLE('',#256,5.08);
#100=CIRCLE('',#259,4.8);
#101=CIRCLE('',#260,4.8);
#102=CIRCLE('',#263,5.74);
#103=VERTEX_POINT('',#342);
#104=VERTEX_POINT('',#345);
#105=VERTEX_POINT('',#347);
#106=VERTEX_POINT('',#352);
#107=VERTEX_POINT('',#356);
#108=VERTEX_POINT('',#359);
#109=VERTEX_POINT('',#363);
#110=VERTEX_POINT('',#365);
#111=VERTEX_POINT('',#369);
#112=VERTEX_POINT('',#374);
#113=VERTEX_POINT('',#378);
#114=VERTEX_POINT('',#382);
#115=VERTEX_POINT('',#387);
#116=VERTEX_POINT('',#389);
#117=VERTEX_POINT('',#394);
#118=VERTEX_POINT('',#423);
#119=EDGE_CURVE('',#103,#103,#88,.T.);
#120=EDGE_CURVE('',#104,#104,#89,.T.);
#121=EDGE_CURVE('',#104,#105,#27,.T.);
#122=EDGE_CURVE('',#105,#105,#90,.T.);
#123=EDGE_CURVE('',#106,#106,#91,.T.);
#124=EDGE_CURVE('',#106,#105,#28,.T.);
#125=EDGE_CURVE('',#107,#107,#92,.T.);
#126=EDGE_CURVE('',#108,#108,#93,.T.);
#127=EDGE_CURVE('',#108,#103,#29,.T.);
#128=EDGE_CURVE('',#109,#109,#94,.T.);
#129=EDGE_CURVE('',#109,#110,#30,.T.);
#130=EDGE_CURVE('',#110,#110,#95,.T.);
#131=EDGE_CURVE('',#111,#111,#96,.T.);
#132=EDGE_CURVE('',#111,#109,#31,.T.);
#133=EDGE_CURVE('',#112,#112,#97,.T.);
#134=EDGE_CURVE('',#112,#107,#32,.T.);
#135=EDGE_CURVE('',#113,#113,#98,.T.);
#136=EDGE_CURVE('',#113,#112,#33,.T.);
#137=EDGE_CURVE('',#114,#114,#99,.T.);
#138=EDGE_CURVE('',#110,#114,#34,.T.);
#139=EDGE_CURVE('',#115,#115,#100,.T.);
#140=EDGE_CURVE('',#115,#116,#35,.T.);
#141=EDGE_CURVE('',#116,#116,#101,.T.);
#142=EDGE_CURVE('',#117,#117,#102,.T.);
#143=EDGE_CURVE('',#118,#117,#13,.T.);
#144=ORIENTED_EDGE('',*,*,#119,.F.);
#145=ORIENTED_EDGE('',*,*,#120,.F.);
#146=ORIENTED_EDGE('',*,*,#121,.T.);
#147=ORIENTED_EDGE('',*,*,#122,.F.);
#148=ORIENTED_EDGE('',*,*,#121,.F.);
#149=ORIENTED_EDGE('',*,*,#120,.T.);
#150=ORIENTED_EDGE('',*,*,#123,.T.);
#151=ORIENTED_EDGE('',*,*,#124,.T.);
#152=ORIENTED_EDGE('',*,*,#122,.T.);
#153=ORIENTED_EDGE('',*,*,#124,.F.);
#154=ORIENTED_EDGE('',*,*,#125,.F.);
#155=ORIENTED_EDGE('',*,*,#123,.F.);
#156=ORIENTED_EDGE('',*,*,#126,.F.);
#157=ORIENTED_EDGE('',*,*,#127,.T.);
#158=ORIENTED_EDGE('',*,*,#119,.T.);
#159=ORIENTED_EDGE('',*,*,#127,.F.);
#160=ORIENTED_EDGE('',*,*,#128,.F.);
#161=ORIENTED_EDGE('',*,*,#129,.T.);
#162=ORIENTED_EDGE('',*,*,#130,.T.);
#163=ORIENTED_EDGE('',*,*,#129,.F.);
#164=ORIENTED_EDGE('',*,*,#131,.F.);
#165=ORIENTED_EDGE('',*,*,#132,.T.);
#166=ORIENTED_EDGE('',*,*,#128,.T.);
#167=ORIENTED_EDGE('',*,*,#132,.F.);
#168=ORIENTED_EDGE('',*,*,#131,.T.);
#169=ORIENTED_EDGE('',*,*,#126,.T.);
#170=ORIENTED_EDGE('',*,*,#133,.F.);
#171=ORIENTED_EDGE('',*,*,#134,.T.);
#172=ORIENTED_EDGE('',*,*,#125,.T.);
#173=ORIENTED_EDGE('',*,*,#134,.F.);
#174=ORIENTED_EDGE('',*,*,#135,.F.);
#175=ORIENTED_EDGE('',*,*,#136,.T.);
#176=ORIENTED_EDGE('',*,*,#133,.T.);
#177=ORIENTED_EDGE('',*,*,#136,.F.);
#178=ORIENTED_EDGE('',*,*,#135,.T.);
#179=ORIENTED_EDGE('',*,*,#137,.F.);
#180=ORIENTED_EDGE('',*,*,#130,.F.);
#181=ORIENTED_EDGE('',*,*,#138,.T.);
#182=ORIENTED_EDGE('',*,*,#137,.T.);
#183=ORIENTED_EDGE('',*,*,#138,.F.);
#184=ORIENTED_EDGE('',*,*,#139,.F.);
#185=ORIENTED_EDGE('',*,*,#140,.T.);
#186=ORIENTED_EDGE('',*,*,#141,.F.);
#187=ORIENTED_EDGE('',*,*,#140,.F.);
#188=ORIENTED_EDGE('',*,*,#139,.T.);
#189=ORIENTED_EDGE('',*,*,#142,.F.);
#190=ORIENTED_EDGE('',*,*,#141,.T.);
#191=ORIENTED_EDGE('',*,*,#143,.T.);
#192=ORIENTED_EDGE('',*,*,#142,.T.);
#193=ORIENTED_EDGE('',*,*,#143,.F.);
#194=PLANE('',#233);
#195=PLANE('',#238);
#196=PLANE('',#241);
#197=PLANE('',#250);
#198=PLANE('',#255);
#199=PLANE('',#261);
#200=PLANE('',#262);
#201=ADVANCED_FACE('',(#50),#194,.T.);
#202=ADVANCED_FACE('',(#51),#45,.T.);
#203=ADVANCED_FACE('',(#52),#195,.T.);
#204=ADVANCED_FACE('',(#53),#23,.F.);
#205=ADVANCED_FACE('',(#54,#19),#196,.T.);
#206=ADVANCED_FACE('',(#55),#46,.F.);
#207=ADVANCED_FACE('',(#56),#24,.T.);
#208=ADVANCED_FACE('',(#57),#25,.T.);
#209=ADVANCED_FACE('',(#58,#20),#197,.T.);
#210=ADVANCED_FACE('',(#59),#26,.T.);
#211=ADVANCED_FACE('',(#60),#47,.T.);
#212=ADVANCED_FACE('',(#61,#21),#198,.T.);
#213=ADVANCED_FACE('',(#62),#48,.T.);
#214=ADVANCED_FACE('',(#63),#49,.T.);
#215=ADVANCED_FACE('',(#64),#199,.T.);
#216=ADVANCED_FACE('',(#65,#22),#200,.T.);
#217=ADVANCED_FACE('',(#66),#14,.T.);
#218=CLOSED_SHELL('',(#201,#202,#203,#204,#205,#206,#207,#208,#209,#210,
#211,#212,#213));
#219=CLOSED_SHELL('',(#214,#215,#216,#217));
#220=DERIVED_UNIT_ELEMENT(#222,1.);
#221=DERIVED_UNIT_ELEMENT(#430,-3.);
#222=(
MASS_UNIT()
NAMED_UNIT(*)
SI_UNIT(.KILO.,.GRAM.)
);
#223=DERIVED_UNIT((#220,#221));
#224=MEASURE_REPRESENTATION_ITEM('density measure',
POSITIVE_RATIO_MEASURE(7850.),#223);
#225=PROPERTY_DEFINITION_REPRESENTATION(#230,#227);
#226=PROPERTY_DEFINITION_REPRESENTATION(#231,#228);
#227=REPRESENTATION('material name',(#229),#427);
#228=REPRESENTATION('density',(#224),#427);
#229=DESCRIPTIVE_REPRESENTATION_ITEM('\X2\92FC\X0\','\X2\92FC\X0\');
#230=PROPERTY_DEFINITION('material property','material name',#437);
#231=PROPERTY_DEFINITION('material property','density of part',#437);
#232=AXIS2_PLACEMENT_3D('',#340,#265,#266);
#233=AXIS2_PLACEMENT_3D('',#341,#267,#268);
#234=AXIS2_PLACEMENT_3D('',#343,#269,#270);
#235=AXIS2_PLACEMENT_3D('',#344,#271,#272);
#236=AXIS2_PLACEMENT_3D('',#346,#273,#274);
#237=AXIS2_PLACEMENT_3D('',#349,#276,#277);
#238=AXIS2_PLACEMENT_3D('',#350,#278,#279);
#239=AXIS2_PLACEMENT_3D('',#351,#280,#281);
#240=AXIS2_PLACEMENT_3D('',#353,#282,#283);
#241=AXIS2_PLACEMENT_3D('',#355,#285,#286);
#242=AXIS2_PLACEMENT_3D('',#357,#287,#288);
#243=AXIS2_PLACEMENT_3D('',#358,#289,#290);
#244=AXIS2_PLACEMENT_3D('',#360,#291,#292);
#245=AXIS2_PLACEMENT_3D('',#362,#294,#295);
#246=AXIS2_PLACEMENT_3D('',#364,#296,#297);
#247=AXIS2_PLACEMENT_3D('',#367,#299,#300);
#248=AXIS2_PLACEMENT_3D('',#368,#301,#302);
#249=AXIS2_PLACEMENT_3D('',#370,#303,#304);
#250=AXIS2_PLACEMENT_3D('',#372,#306,#307);
#251=AXIS2_PLACEMENT_3D('',#373,#308,#309);
#252=AXIS2_PLACEMENT_3D('',#375,#310,#311);
#253=AXIS2_PLACEMENT_3D('',#377,#313,#314);
#254=AXIS2_PLACEMENT_3D('',#379,#315,#316);
#255=AXIS2_PLACEMENT_3D('',#381,#318,#319);
#256=AXIS2_PLACEMENT_3D('',#383,#320,#321);
#257=AXIS2_PLACEMENT_3D('',#384,#322,#323);
#258=AXIS2_PLACEMENT_3D('',#386,#325,#326);
#259=AXIS2_PLACEMENT_3D('',#388,#327,#328);
#260=AXIS2_PLACEMENT_3D('',#391,#330,#331);
#261=AXIS2_PLACEMENT_3D('',#392,#332,#333);
#262=AXIS2_PLACEMENT_3D('',#393,#334,#335);
#263=AXIS2_PLACEMENT_3D('',#395,#336,#337);
#264=AXIS2_PLACEMENT_3D('',#424,#338,#339);
#265=DIRECTION('axis',(0.,0.,1.));
#266=DIRECTION('refdir',(1.,0.,0.));
#267=DIRECTION('center_axis',(1.,0.,0.));
#268=DIRECTION('ref_axis',(0.,1.,0.));
#269=DIRECTION('center_axis',(-1.,0.,0.));
#270=DIRECTION('ref_axis',(0.,1.,0.));
#271=DIRECTION('center_axis',(-1.,0.,0.));
#272=DIRECTION('ref_axis',(0.,-1.,0.));
#273=DIRECTION('center_axis',(-1.,0.,0.));
#274=DIRECTION('ref_axis',(0.,-1.,0.));
#275=DIRECTION('',(1.,0.,0.));
#276=DIRECTION('center_axis',(1.,0.,0.));
#277=DIRECTION('ref_axis',(0.,-1.,0.));
#278=DIRECTION('center_axis',(-1.,0.,0.));
#279=DIRECTION('ref_axis',(0.,-1.,0.));
#280=DIRECTION('center_axis',(-1.,0.,0.));
#281=DIRECTION('ref_axis',(0.,-1.,0.));
#282=DIRECTION('center_axis',(-1.,0.,0.));
#283=DIRECTION('ref_axis',(0.,-1.,0.));
#284=DIRECTION('',(0.707106781186548,-0.707106781186548,8.65956056235493E-17));
#285=DIRECTION('center_axis',(-1.,0.,0.));
#286=DIRECTION('ref_axis',(0.,0.,1.));
#287=DIRECTION('center_axis',(1.,0.,0.));
#288=DIRECTION('ref_axis',(0.,0.,-1.));
#289=DIRECTION('center_axis',(-1.,0.,0.));
#290=DIRECTION('ref_axis',(0.,1.,0.));
#291=DIRECTION('center_axis',(-1.,0.,0.));
#292=DIRECTION('ref_axis',(0.,1.,0.));
#293=DIRECTION('',(-1.,0.,0.));
#294=DIRECTION('center_axis',(1.,0.,0.));
#295=DIRECTION('ref_axis',(0.,1.,0.));
#296=DIRECTION('center_axis',(1.,0.,0.));
#297=DIRECTION('ref_axis',(0.,0.,-1.));
#298=DIRECTION('',(-0.898794046299167,0.438371146789077,5.36849821753798E-17));
#299=DIRECTION('center_axis',(1.,0.,0.));
#300=DIRECTION('ref_axis',(0.,0.,-1.));
#301=DIRECTION('center_axis',(-1.,0.,0.));
#302=DIRECTION('ref_axis',(0.,1.,0.));
#303=DIRECTION('center_axis',(1.,0.,0.));
#304=DIRECTION('ref_axis',(0.,0.,-1.));
#305=DIRECTION('',(-0.99999763027112,-0.00217702828275384,-2.66609071812775E-19));
#306=DIRECTION('center_axis',(1.,0.,0.));
#307=DIRECTION('ref_axis',(0.,0.,-1.));
#308=DIRECTION('center_axis',(1.,0.,0.));
#309=DIRECTION('ref_axis',(0.,1.,0.));
#310=DIRECTION('center_axis',(1.,0.,0.));
#311=DIRECTION('ref_axis',(0.,0.,-1.));
#312=DIRECTION('',(-0.573576436351047,0.819152044288991,1.00317192905352E-16));
#313=DIRECTION('center_axis',(1.,0.,0.));
#314=DIRECTION('ref_axis',(0.,1.,0.));
#315=DIRECTION('center_axis',(1.,0.,0.));
#316=DIRECTION('ref_axis',(0.,0.,-1.));
#317=DIRECTION('',(-1.,0.,0.));
#318=DIRECTION('center_axis',(1.,0.,0.));
#319=DIRECTION('ref_axis',(0.,0.,-1.));
#320=DIRECTION('center_axis',(1.,0.,0.));
#321=DIRECTION('ref_axis',(0.,0.,-1.));
#322=DIRECTION('center_axis',(1.,0.,0.));
#323=DIRECTION('ref_axis',(0.,1.,0.));
#324=DIRECTION('',(-1.,0.,0.));
#325=DIRECTION('center_axis',(-1.,0.,0.));
#326=DIRECTION('ref_axis',(0.,-1.,0.));
#327=DIRECTION('center_axis',(-1.,0.,0.));
#328=DIRECTION('ref_axis',(0.,-1.,0.));
#329=DIRECTION('',(1.,0.,0.));
#330=DIRECTION('center_axis',(1.,0.,0.));
#331=DIRECTION('ref_axis',(0.,-1.,0.));
#332=DIRECTION('center_axis',(-1.,0.,0.));
#333=DIRECTION('ref_axis',(0.,-1.,0.));
#334=DIRECTION('center_axis',(-1.,0.,0.));
#335=DIRECTION('ref_axis',(0.,0.,1.));
#336=DIRECTION('center_axis',(1.,0.,0.));
#337=DIRECTION('ref_axis',(0.,0.,-1.));
#338=DIRECTION('center_axis',(0.,0.,1.));
#339=DIRECTION('ref_axis',(1.,0.,0.));
#340=CARTESIAN_POINT('',(0.,0.,0.));
#341=CARTESIAN_POINT('Origin',(6.81,0.,0.));
#342=CARTESIAN_POINT('',(6.81,-5.,-6.12323399573677E-16));
#343=CARTESIAN_POINT('Origin',(6.81,0.,0.));
#344=CARTESIAN_POINT('Origin',(1.,0.,0.));
#345=CARTESIAN_POINT('',(0.,2.25,-2.75545529808154E-16));
#346=CARTESIAN_POINT('Origin',(0.,0.,0.));
#347=CARTESIAN_POINT('',(0.3,2.25,2.75545529808154E-16));
#348=CARTESIAN_POINT('',(1.,2.25,-2.75545529808154E-16));
#349=CARTESIAN_POINT('Origin',(0.3,0.,0.));
#350=CARTESIAN_POINT('Origin',(0.,0.,0.));
#351=CARTESIAN_POINT('Origin',(0.15,0.,0.));
#352=CARTESIAN_POINT('',(0.,2.55,-3.12284933782575E-16));
#353=CARTESIAN_POINT('Origin',(0.,0.,0.));
#354=CARTESIAN_POINT('',(0.15,2.4,-2.93915231795365E-16));
#355=CARTESIAN_POINT('Origin',(0.,5.552303757438,0.));
#356=CARTESIAN_POINT('',(1.73472347597681E-16,-5.552303757438,-6.79961102444026E-16));
#357=CARTESIAN_POINT('Origin',(0.,0.,0.));
#358=CARTESIAN_POINT('Origin',(22.81,0.,0.));
#359=CARTESIAN_POINT('',(22.81,-5.,-6.12323399573677E-16));
#360=CARTESIAN_POINT('Origin',(22.81,0.,0.));
#361=CARTESIAN_POINT('',(22.81,-5.,6.12323399573677E-16));
#362=CARTESIAN_POINT('Origin',(3.12,0.,0.));
#363=CARTESIAN_POINT('',(4.11,-6.0457105253604,-7.40386004345408E-16));
#364=CARTESIAN_POINT('Origin',(4.11,0.,0.));
#365=CARTESIAN_POINT('',(2.13,-5.08,-6.22120573966855E-16));
#366=CARTESIAN_POINT('',(3.12,-5.5628552626802,-6.81253289156132E-16));
#367=CARTESIAN_POINT('Origin',(2.13,0.,0.));
#368=CARTESIAN_POINT('Origin',(13.46,0.,0.));
#369=CARTESIAN_POINT('',(22.81,-6.005,-7.35400402887986E-16));
#370=CARTESIAN_POINT('Origin',(22.81,0.,0.));
#371=CARTESIAN_POINT('',(13.46,-6.0253552626802,-7.37893203616697E-16));
#372=CARTESIAN_POINT('Origin',(22.81,0.,0.));
#373=CARTESIAN_POINT('Origin',(0.19,0.,0.));
#374=CARTESIAN_POINT('',(0.380000000000001,-6.095,-7.46422224080312E-16));
#375=CARTESIAN_POINT('Origin',(0.38,0.,0.));
#376=CARTESIAN_POINT('',(0.19,-5.823651878719,-7.13191663262169E-16));
#377=CARTESIAN_POINT('Origin',(0.81,0.,0.));
#378=CARTESIAN_POINT('',(1.24,-6.095,-7.46422224080312E-16));
#379=CARTESIAN_POINT('Origin',(1.24,0.,0.));
#380=CARTESIAN_POINT('',(0.81,-6.095,-7.46422224080312E-16));
#381=CARTESIAN_POINT('Origin',(1.24,5.08,0.));
#382=CARTESIAN_POINT('',(1.24,-5.08,-6.22120573966855E-16));
#383=CARTESIAN_POINT('Origin',(1.24,0.,0.));
#384=CARTESIAN_POINT('Origin',(1.685,0.,0.));
#385=CARTESIAN_POINT('',(1.685,-5.08,-6.22120573966855E-16));
#386=CARTESIAN_POINT('Origin',(22.81,0.,0.));
#387=CARTESIAN_POINT('',(17.81,4.8,-5.87830463590729E-16));
#388=CARTESIAN_POINT('Origin',(17.81,0.,0.));
#389=CARTESIAN_POINT('',(22.81,4.8,-5.87830463590729E-16));
#390=CARTESIAN_POINT('',(22.81,4.8,-5.87830463590729E-16));
#391=CARTESIAN_POINT('Origin',(22.81,0.,0.));
#392=CARTESIAN_POINT('Origin',(17.81,0.,0.));
#393=CARTESIAN_POINT('Origin',(22.81,5.74,0.));
#394=CARTESIAN_POINT('',(22.81,5.74,0.));
#395=CARTESIAN_POINT('Origin',(22.81,0.,0.));
#396=CARTESIAN_POINT('Ctrl Pts',(32.39,0.,0.));
#397=CARTESIAN_POINT('Ctrl Pts',(32.39,0.,0.));
#398=CARTESIAN_POINT('Ctrl Pts',(32.39,0.,0.));
#399=CARTESIAN_POINT('Ctrl Pts',(32.39,0.,0.));
#400=CARTESIAN_POINT('Ctrl Pts',(32.39,0.,0.));
#401=CARTESIAN_POINT('Ctrl Pts',(32.39,0.,0.));
#402=CARTESIAN_POINT('Ctrl Pts',(32.39,0.,0.));
#403=CARTESIAN_POINT('Ctrl Pts',(32.39,0.,0.));
#404=CARTESIAN_POINT('Ctrl Pts',(32.39,0.,0.));
#405=CARTESIAN_POINT('Ctrl Pts',(32.39,5.74,0.));
#406=CARTESIAN_POINT('Ctrl Pts',(32.39,5.74,5.74));
#407=CARTESIAN_POINT('Ctrl Pts',(32.39,0.,5.74));
#408=CARTESIAN_POINT('Ctrl Pts',(32.39,-5.74,5.74));
#409=CARTESIAN_POINT('Ctrl Pts',(32.39,-5.74,0.));
#410=CARTESIAN_POINT('Ctrl Pts',(32.39,-5.74,-5.74));
#411=CARTESIAN_POINT('Ctrl Pts',(32.39,0.,-5.74));
#412=CARTESIAN_POINT('Ctrl Pts',(32.39,5.74,-5.74));
#413=CARTESIAN_POINT('Ctrl Pts',(32.39,5.74,0.));
#414=CARTESIAN_POINT('Ctrl Pts',(22.81,5.74,0.));
#415=CARTESIAN_POINT('Ctrl Pts',(22.81,5.74,5.74));
#416=CARTESIAN_POINT('Ctrl Pts',(22.81,0.,5.74));
#417=CARTESIAN_POINT('Ctrl Pts',(22.81,-5.74,5.74));
#418=CARTESIAN_POINT('Ctrl Pts',(22.81,-5.74,0.));
#419=CARTESIAN_POINT('Ctrl Pts',(22.81,-5.74,-5.74));
#420=CARTESIAN_POINT('Ctrl Pts',(22.81,0.,-5.74));
#421=CARTESIAN_POINT('Ctrl Pts',(22.81,5.74,-5.74));
#422=CARTESIAN_POINT('Ctrl Pts',(22.81,5.74,0.));
#423=CARTESIAN_POINT('',(32.39,0.,0.));
#424=CARTESIAN_POINT('Origin',(22.81,0.,0.));
#425=UNCERTAINTY_MEASURE_WITH_UNIT(LENGTH_MEASURE(0.01),#429,
'DISTANCE_ACCURACY_VALUE',
'Maximum model space distance between geometric entities at asserted c
onnectivities');
#426=UNCERTAINTY_MEASURE_WITH_UNIT(LENGTH_MEASURE(0.01),#429,
'DISTANCE_ACCURACY_VALUE',
'Maximum model space distance between geometric entities at asserted c
onnectivities');
#427=(
GEOMETRIC_REPRESENTATION_CONTEXT(3)
GLOBAL_UNCERTAINTY_ASSIGNED_CONTEXT((#425))
GLOBAL_UNIT_ASSIGNED_CONTEXT((#429,#431,#432))
REPRESENTATION_CONTEXT('','3D')
);
#428=(
GEOMETRIC_REPRESENTATION_CONTEXT(3)
GLOBAL_UNCERTAINTY_ASSIGNED_CONTEXT((#426))
GLOBAL_UNIT_ASSIGNED_CONTEXT((#429,#431,#432))
REPRESENTATION_CONTEXT('','3D')
);
#429=(
LENGTH_UNIT()
NAMED_UNIT(*)
SI_UNIT(.MILLI.,.METRE.)
);
#430=(
LENGTH_UNIT()
NAMED_UNIT(*)
SI_UNIT($,.METRE.)
);
#431=(
NAMED_UNIT(*)
PLANE_ANGLE_UNIT()
SI_UNIT($,.RADIAN.)
);
#432=(
NAMED_UNIT(*)
SI_UNIT($,.STERADIAN.)
SOLID_ANGLE_UNIT()
);
#433=SHAPE_DEFINITION_REPRESENTATION(#434,#435);
#434=PRODUCT_DEFINITION_SHAPE('',$,#437);
#435=SHAPE_REPRESENTATION('',(#232),#427);
#436=PRODUCT_DEFINITION_CONTEXT('part definition',#441,'design');
#437=PRODUCT_DEFINITION('45ACP_FMJ','45ACP_FMJ v2',#438,#436);
#438=PRODUCT_DEFINITION_FORMATION('',$,#443);
#439=PRODUCT_RELATED_PRODUCT_CATEGORY('45ACP_FMJ v2','45ACP_FMJ v2',(#443));
#440=APPLICATION_PROTOCOL_DEFINITION('international standard',
'automotive_design',2009,#441);
#441=APPLICATION_CONTEXT(
'Core Data for Automotive Mechanical Design Process');
#442=PRODUCT_CONTEXT('part definition',#441,'mechanical');
#443=PRODUCT('45ACP_FMJ','45ACP_FMJ v2',$,(#442));
#444=PRESENTATION_STYLE_ASSIGNMENT((#446));
#445=PRESENTATION_STYLE_ASSIGNMENT((#447));
#446=SURFACE_STYLE_USAGE(.BOTH.,#448);
#447=SURFACE_STYLE_USAGE(.BOTH.,#449);
#448=SURFACE_SIDE_STYLE('',(#450));
#449=SURFACE_SIDE_STYLE('',(#451));
#450=SURFACE_STYLE_FILL_AREA(#452);
#451=SURFACE_STYLE_FILL_AREA(#453);
#452=FILL_AREA_STYLE('\X2\771F936E\X0\ - \X2\53E43044\X0\ - \X2\30DE30C330C8\X0\',
(#454));
#453=FILL_AREA_STYLE('\X2\9285\X0\ - \X2\672A51E67406\X0\',(#455));
#454=FILL_AREA_STYLE_COLOUR('\X2\771F936E\X0\ - \X2\53E43044\X0\ - \X2\30DE30C330C8\X0\',
#456);
#455=FILL_AREA_STYLE_COLOUR('\X2\9285\X0\ - \X2\672A51E67406\X0\',#457);
#456=COLOUR_RGB('\X2\771F936E\X0\ - \X2\53E43044\X0\ - \X2\30DE30C330C8\X0\',
0.,0.,0.);
#457=COLOUR_RGB('\X2\9285\X0\ - \X2\672A51E67406\X0\',0.,0.,0.);
ENDSEC;
END-ISO-10303-21;
