ISO-10303-21;
HEADER;
/* Generated by software containing ST-Developer
 * from STEP Tools, Inc. (www.steptools.com) 
 */

FILE_DESCRIPTION(
/* description */ (''),
/* implementation_level */ '2;1');

FILE_NAME(
/* name */ '5-7x28mm_FMJ_mk1_v1.step',
/* time_stamp */ '2026-05-11T15:11:43+09:00',
/* author */ (''),
/* organization */ (''),
/* preprocessor_version */ 'ST-DEVELOPER v20.1',
/* originating_system */ 'Autodesk Translation Framework v15.8.0.0',
/* authorisation */ '');

FILE_SCHEMA (('AUTOMOTIVE_DESIGN { 1 0 10303 214 3 1 1 }'));
ENDSEC;

DATA;
#10=MECHANICAL_DESIGN_GEOMETRIC_PRESENTATION_REPRESENTATION('',(#15,#16),
#524);
#11=SHAPE_REPRESENTATION_RELATIONSHIP('SRR','None',#531,#12);
#12=ADVANCED_BREP_SHAPE_REPRESENTATION('',(#17,#18),#523);
#13=ELLIPSE('',#324,11.6,2.85);
#14=(
BOUNDED_SURFACE()
B_SPLINE_SURFACE(2,2,((#492,#493,#494,#495,#496,#497,#498,#499,#500),(#501,
#502,#503,#504,#505,#506,#507,#508,#509),(#510,#511,#512,#513,#514,#515,
#516,#517,#518)),.UNSPECIFIED.,.F.,.T.,.F.)
B_SPLINE_SURFACE_WITH_KNOTS((3,3),(3,2,2,2,3),(0.,1.5707963267949),(0.,
1.5707963267949,3.14159265358979,4.71238898038469,6.28318530717959),
 .UNSPECIFIED.)
GEOMETRIC_REPRESENTATION_ITEM()
RATIONAL_B_SPLINE_SURFACE(((1.,0.707106781186548,1.,0.707106781186548,1.,
0.707106781186548,1.,0.707106781186548,1.),(0.707106781186548,0.5,0.707106781186548,
0.5,0.707106781186548,0.5,0.707106781186548,0.5,0.707106781186548),(1.,
0.707106781186548,1.,0.707106781186548,1.,0.707106781186548,1.,0.707106781186548,
1.)))
REPRESENTATION_ITEM('')
SURFACE()
);
#15=STYLED_ITEM('',(#541),#17);
#16=STYLED_ITEM('',(#542),#18);
#17=MANIFOLD_SOLID_BREP('\X2\30DC30C730A3\X0\1',#269);
#18=MANIFOLD_SOLID_BREP('\X2\30DC30C730A3\X0\2',#270);
#19=TOROIDAL_SURFACE('',#294,4.19,1.);
#20=FACE_BOUND('',#82,.T.);
#21=FACE_BOUND('',#90,.T.);
#22=FACE_BOUND('',#94,.T.);
#23=FACE_BOUND('',#99,.T.);
#24=CONICAL_SURFACE('',#290,1.65,0.785398163397448);
#25=CONICAL_SURFACE('',#300,3.5825,0.611324946048632);
#26=CONICAL_SURFACE('',#306,3.6375,0.43568287303094);
#27=CONICAL_SURFACE('',#311,3.76,0.785398163397448);
#28=LINE('',#428,#39);
#29=LINE('',#434,#40);
#30=LINE('',#450,#41);
#31=LINE('',#455,#42);
#32=LINE('',#459,#43);
#33=LINE('',#464,#44);
#34=LINE('',#467,#45);
#35=LINE('',#472,#46);
#36=LINE('',#476,#47);
#37=LINE('',#481,#48);
#38=LINE('',#486,#49);
#39=VECTOR('',#335,1.5);
#40=VECTOR('',#344,1.65);
#41=VECTOR('',#363,3.5825);
#42=VECTOR('',#370,3.19);
#43=VECTOR('',#375,2.25);
#44=VECTOR('',#380,3.6375);
#45=VECTOR('',#385,3.975);
#46=VECTOR('',#392,3.76);
#47=VECTOR('',#397,3.9);
#48=VECTOR('',#404,3.3);
#49=VECTOR('',#409,2.05);
#50=CYLINDRICAL_SURFACE('',#286,1.5);
#51=CYLINDRICAL_SURFACE('',#302,3.19);
#52=CYLINDRICAL_SURFACE('',#304,2.25);
#53=CYLINDRICAL_SURFACE('',#309,3.975);
#54=CYLINDRICAL_SURFACE('',#313,3.9);
#55=CYLINDRICAL_SURFACE('',#317,3.3);
#56=CYLINDRICAL_SURFACE('',#318,2.05);
#57=FACE_OUTER_BOUND('',#77,.T.);
#58=FACE_OUTER_BOUND('',#78,.T.);
#59=FACE_OUTER_BOUND('',#79,.T.);
#60=FACE_OUTER_BOUND('',#80,.T.);
#61=FACE_OUTER_BOUND('',#81,.T.);
#62=FACE_OUTER_BOUND('',#83,.T.);
#63=FACE_OUTER_BOUND('',#84,.T.);
#64=FACE_OUTER_BOUND('',#85,.T.);
#65=FACE_OUTER_BOUND('',#86,.T.);
#66=FACE_OUTER_BOUND('',#87,.T.);
#67=FACE_OUTER_BOUND('',#88,.T.);
#68=FACE_OUTER_BOUND('',#89,.T.);
#69=FACE_OUTER_BOUND('',#91,.T.);
#70=FACE_OUTER_BOUND('',#92,.T.);
#71=FACE_OUTER_BOUND('',#93,.T.);
#72=FACE_OUTER_BOUND('',#95,.T.);
#73=FACE_OUTER_BOUND('',#96,.T.);
#74=FACE_OUTER_BOUND('',#97,.T.);
#75=FACE_OUTER_BOUND('',#98,.T.);
#76=FACE_OUTER_BOUND('',#100,.T.);
#77=EDGE_LOOP('',(#176));
#78=EDGE_LOOP('',(#177,#178,#179,#180));
#79=EDGE_LOOP('',(#181));
#80=EDGE_LOOP('',(#182,#183,#184,#185));
#81=EDGE_LOOP('',(#186));
#82=EDGE_LOOP('',(#187));
#83=EDGE_LOOP('',(#188,#189,#190,#191,#192,#193));
#84=EDGE_LOOP('',(#194,#195,#196,#197,#198));
#85=EDGE_LOOP('',(#199,#200,#201,#202,#203));
#86=EDGE_LOOP('',(#204,#205,#206,#207));
#87=EDGE_LOOP('',(#208,#209,#210,#211));
#88=EDGE_LOOP('',(#212,#213,#214,#215));
#89=EDGE_LOOP('',(#216));
#90=EDGE_LOOP('',(#217));
#91=EDGE_LOOP('',(#218,#219,#220,#221));
#92=EDGE_LOOP('',(#222,#223,#224,#225));
#93=EDGE_LOOP('',(#226));
#94=EDGE_LOOP('',(#227));
#95=EDGE_LOOP('',(#228,#229,#230,#231));
#96=EDGE_LOOP('',(#232,#233,#234,#235));
#97=EDGE_LOOP('',(#236));
#98=EDGE_LOOP('',(#237));
#99=EDGE_LOOP('',(#238));
#100=EDGE_LOOP('',(#239,#240,#241));
#101=CIRCLE('',#285,2.25);
#102=CIRCLE('',#287,1.5);
#103=CIRCLE('',#288,1.5);
#104=CIRCLE('',#291,1.8);
#105=CIRCLE('',#293,3.62);
#106=CIRCLE('',#295,3.37111171984867);
#107=CIRCLE('',#296,1.);
#108=CIRCLE('',#297,3.19);
#109=CIRCLE('',#298,3.19);
#110=CIRCLE('',#299,3.37111171984867);
#111=CIRCLE('',#301,3.975);
#112=CIRCLE('',#303,3.19);
#113=CIRCLE('',#305,2.25);
#114=CIRCLE('',#307,3.975);
#115=CIRCLE('',#308,3.3);
#116=CIRCLE('',#312,3.9);
#117=CIRCLE('',#314,3.9);
#118=CIRCLE('',#316,3.3);
#119=CIRCLE('',#319,2.05);
#120=CIRCLE('',#320,2.05);
#121=CIRCLE('',#323,2.85);
#122=VERTEX_POINT('',#422);
#123=VERTEX_POINT('',#425);
#124=VERTEX_POINT('',#427);
#125=VERTEX_POINT('',#432);
#126=VERTEX_POINT('',#436);
#127=VERTEX_POINT('',#439);
#128=VERTEX_POINT('',#440);
#129=VERTEX_POINT('',#442);
#130=VERTEX_POINT('',#444);
#131=VERTEX_POINT('',#449);
#132=VERTEX_POINT('',#453);
#133=VERTEX_POINT('',#457);
#134=VERTEX_POINT('',#461);
#135=VERTEX_POINT('',#463);
#136=VERTEX_POINT('',#470);
#137=VERTEX_POINT('',#474);
#138=VERTEX_POINT('',#478);
#139=VERTEX_POINT('',#483);
#140=VERTEX_POINT('',#485);
#141=VERTEX_POINT('',#490);
#142=VERTEX_POINT('',#519);
#143=EDGE_CURVE('',#122,#122,#101,.T.);
#144=EDGE_CURVE('',#123,#123,#102,.T.);
#145=EDGE_CURVE('',#123,#124,#28,.T.);
#146=EDGE_CURVE('',#124,#124,#103,.T.);
#147=EDGE_CURVE('',#125,#125,#104,.T.);
#148=EDGE_CURVE('',#125,#124,#29,.T.);
#149=EDGE_CURVE('',#126,#126,#105,.T.);
#150=EDGE_CURVE('',#127,#128,#106,.T.);
#151=EDGE_CURVE('',#128,#129,#107,.T.);
#152=EDGE_CURVE('',#129,#130,#108,.T.);
#153=EDGE_CURVE('',#130,#129,#109,.T.);
#154=EDGE_CURVE('',#128,#127,#110,.T.);
#155=EDGE_CURVE('',#127,#131,#30,.T.);
#156=EDGE_CURVE('',#131,#131,#111,.T.);
#157=EDGE_CURVE('',#132,#132,#112,.T.);
#158=EDGE_CURVE('',#132,#130,#31,.T.);
#159=EDGE_CURVE('',#133,#133,#113,.T.);
#160=EDGE_CURVE('',#133,#122,#32,.T.);
#161=EDGE_CURVE('',#134,#134,#114,.T.);
#162=EDGE_CURVE('',#134,#135,#33,.T.);
#163=EDGE_CURVE('',#135,#135,#115,.T.);
#164=EDGE_CURVE('',#131,#134,#34,.T.);
#165=EDGE_CURVE('',#136,#136,#116,.T.);
#166=EDGE_CURVE('',#136,#126,#35,.T.);
#167=EDGE_CURVE('',#137,#137,#117,.T.);
#168=EDGE_CURVE('',#137,#136,#36,.T.);
#169=EDGE_CURVE('',#138,#138,#118,.T.);
#170=EDGE_CURVE('',#135,#138,#37,.T.);
#171=EDGE_CURVE('',#139,#139,#119,.T.);
#172=EDGE_CURVE('',#139,#140,#38,.T.);
#173=EDGE_CURVE('',#140,#140,#120,.T.);
#174=EDGE_CURVE('',#141,#141,#121,.T.);
#175=EDGE_CURVE('',#142,#141,#13,.T.);
#176=ORIENTED_EDGE('',*,*,#143,.F.);
#177=ORIENTED_EDGE('',*,*,#144,.F.);
#178=ORIENTED_EDGE('',*,*,#145,.T.);
#179=ORIENTED_EDGE('',*,*,#146,.F.);
#180=ORIENTED_EDGE('',*,*,#145,.F.);
#181=ORIENTED_EDGE('',*,*,#144,.T.);
#182=ORIENTED_EDGE('',*,*,#147,.T.);
#183=ORIENTED_EDGE('',*,*,#148,.T.);
#184=ORIENTED_EDGE('',*,*,#146,.T.);
#185=ORIENTED_EDGE('',*,*,#148,.F.);
#186=ORIENTED_EDGE('',*,*,#149,.F.);
#187=ORIENTED_EDGE('',*,*,#147,.F.);
#188=ORIENTED_EDGE('',*,*,#150,.T.);
#189=ORIENTED_EDGE('',*,*,#151,.T.);
#190=ORIENTED_EDGE('',*,*,#152,.T.);
#191=ORIENTED_EDGE('',*,*,#153,.T.);
#192=ORIENTED_EDGE('',*,*,#151,.F.);
#193=ORIENTED_EDGE('',*,*,#154,.T.);
#194=ORIENTED_EDGE('',*,*,#150,.F.);
#195=ORIENTED_EDGE('',*,*,#155,.T.);
#196=ORIENTED_EDGE('',*,*,#156,.T.);
#197=ORIENTED_EDGE('',*,*,#155,.F.);
#198=ORIENTED_EDGE('',*,*,#154,.F.);
#199=ORIENTED_EDGE('',*,*,#157,.F.);
#200=ORIENTED_EDGE('',*,*,#158,.T.);
#201=ORIENTED_EDGE('',*,*,#152,.F.);
#202=ORIENTED_EDGE('',*,*,#153,.F.);
#203=ORIENTED_EDGE('',*,*,#158,.F.);
#204=ORIENTED_EDGE('',*,*,#159,.F.);
#205=ORIENTED_EDGE('',*,*,#160,.T.);
#206=ORIENTED_EDGE('',*,*,#143,.T.);
#207=ORIENTED_EDGE('',*,*,#160,.F.);
#208=ORIENTED_EDGE('',*,*,#161,.F.);
#209=ORIENTED_EDGE('',*,*,#162,.T.);
#210=ORIENTED_EDGE('',*,*,#163,.T.);
#211=ORIENTED_EDGE('',*,*,#162,.F.);
#212=ORIENTED_EDGE('',*,*,#156,.F.);
#213=ORIENTED_EDGE('',*,*,#164,.T.);
#214=ORIENTED_EDGE('',*,*,#161,.T.);
#215=ORIENTED_EDGE('',*,*,#164,.F.);
#216=ORIENTED_EDGE('',*,*,#157,.T.);
#217=ORIENTED_EDGE('',*,*,#159,.T.);
#218=ORIENTED_EDGE('',*,*,#165,.F.);
#219=ORIENTED_EDGE('',*,*,#166,.T.);
#220=ORIENTED_EDGE('',*,*,#149,.T.);
#221=ORIENTED_EDGE('',*,*,#166,.F.);
#222=ORIENTED_EDGE('',*,*,#167,.F.);
#223=ORIENTED_EDGE('',*,*,#168,.T.);
#224=ORIENTED_EDGE('',*,*,#165,.T.);
#225=ORIENTED_EDGE('',*,*,#168,.F.);
#226=ORIENTED_EDGE('',*,*,#167,.T.);
#227=ORIENTED_EDGE('',*,*,#169,.F.);
#228=ORIENTED_EDGE('',*,*,#163,.F.);
#229=ORIENTED_EDGE('',*,*,#170,.T.);
#230=ORIENTED_EDGE('',*,*,#169,.T.);
#231=ORIENTED_EDGE('',*,*,#170,.F.);
#232=ORIENTED_EDGE('',*,*,#171,.F.);
#233=ORIENTED_EDGE('',*,*,#172,.T.);
#234=ORIENTED_EDGE('',*,*,#173,.F.);
#235=ORIENTED_EDGE('',*,*,#172,.F.);
#236=ORIENTED_EDGE('',*,*,#171,.T.);
#237=ORIENTED_EDGE('',*,*,#174,.F.);
#238=ORIENTED_EDGE('',*,*,#173,.T.);
#239=ORIENTED_EDGE('',*,*,#175,.T.);
#240=ORIENTED_EDGE('',*,*,#174,.T.);
#241=ORIENTED_EDGE('',*,*,#175,.F.);
#242=PLANE('',#284);
#243=PLANE('',#289);
#244=PLANE('',#292);
#245=PLANE('',#310);
#246=PLANE('',#315);
#247=PLANE('',#321);
#248=PLANE('',#322);
#249=ADVANCED_FACE('',(#57),#242,.T.);
#250=ADVANCED_FACE('',(#58),#50,.T.);
#251=ADVANCED_FACE('',(#59),#243,.T.);
#252=ADVANCED_FACE('',(#60),#24,.F.);
#253=ADVANCED_FACE('',(#61,#20),#244,.T.);
#254=ADVANCED_FACE('',(#62),#19,.F.);
#255=ADVANCED_FACE('',(#63),#25,.T.);
#256=ADVANCED_FACE('',(#64),#51,.T.);
#257=ADVANCED_FACE('',(#65),#52,.F.);
#258=ADVANCED_FACE('',(#66),#26,.T.);
#259=ADVANCED_FACE('',(#67),#53,.T.);
#260=ADVANCED_FACE('',(#68,#21),#245,.T.);
#261=ADVANCED_FACE('',(#69),#27,.T.);
#262=ADVANCED_FACE('',(#70),#54,.T.);
#263=ADVANCED_FACE('',(#71,#22),#246,.T.);
#264=ADVANCED_FACE('',(#72),#55,.T.);
#265=ADVANCED_FACE('',(#73),#56,.T.);
#266=ADVANCED_FACE('',(#74),#247,.T.);
#267=ADVANCED_FACE('',(#75,#23),#248,.T.);
#268=ADVANCED_FACE('',(#76),#14,.T.);
#269=CLOSED_SHELL('',(#249,#250,#251,#252,#253,#254,#255,#256,#257,#258,
#259,#260,#261,#262,#263,#264));
#270=CLOSED_SHELL('',(#265,#266,#267,#268));
#271=DERIVED_UNIT_ELEMENT(#273,1.);
#272=DERIVED_UNIT_ELEMENT(#526,-3.);
#273=(
MASS_UNIT()
NAMED_UNIT(*)
SI_UNIT(.KILO.,.GRAM.)
);
#274=DERIVED_UNIT((#271,#272));
#275=MEASURE_REPRESENTATION_ITEM('density measure',
POSITIVE_RATIO_MEASURE(7850.),#274);
#276=PROPERTY_DEFINITION_REPRESENTATION(#281,#278);
#277=PROPERTY_DEFINITION_REPRESENTATION(#282,#279);
#278=REPRESENTATION('material name',(#280),#523);
#279=REPRESENTATION('density',(#275),#523);
#280=DESCRIPTIVE_REPRESENTATION_ITEM('\X2\92FC\X0\','\X2\92FC\X0\');
#281=PROPERTY_DEFINITION('material property','material name',#533);
#282=PROPERTY_DEFINITION('material property','density of part',#533);
#283=AXIS2_PLACEMENT_3D('',#420,#325,#326);
#284=AXIS2_PLACEMENT_3D('',#421,#327,#328);
#285=AXIS2_PLACEMENT_3D('',#423,#329,#330);
#286=AXIS2_PLACEMENT_3D('',#424,#331,#332);
#287=AXIS2_PLACEMENT_3D('',#426,#333,#334);
#288=AXIS2_PLACEMENT_3D('',#429,#336,#337);
#289=AXIS2_PLACEMENT_3D('',#430,#338,#339);
#290=AXIS2_PLACEMENT_3D('',#431,#340,#341);
#291=AXIS2_PLACEMENT_3D('',#433,#342,#343);
#292=AXIS2_PLACEMENT_3D('',#435,#345,#346);
#293=AXIS2_PLACEMENT_3D('',#437,#347,#348);
#294=AXIS2_PLACEMENT_3D('',#438,#349,#350);
#295=AXIS2_PLACEMENT_3D('',#441,#351,#352);
#296=AXIS2_PLACEMENT_3D('',#443,#353,#354);
#297=AXIS2_PLACEMENT_3D('',#445,#355,#356);
#298=AXIS2_PLACEMENT_3D('',#446,#357,#358);
#299=AXIS2_PLACEMENT_3D('',#447,#359,#360);
#300=AXIS2_PLACEMENT_3D('',#448,#361,#362);
#301=AXIS2_PLACEMENT_3D('',#451,#364,#365);
#302=AXIS2_PLACEMENT_3D('',#452,#366,#367);
#303=AXIS2_PLACEMENT_3D('',#454,#368,#369);
#304=AXIS2_PLACEMENT_3D('',#456,#371,#372);
#305=AXIS2_PLACEMENT_3D('',#458,#373,#374);
#306=AXIS2_PLACEMENT_3D('',#460,#376,#377);
#307=AXIS2_PLACEMENT_3D('',#462,#378,#379);
#308=AXIS2_PLACEMENT_3D('',#465,#381,#382);
#309=AXIS2_PLACEMENT_3D('',#466,#383,#384);
#310=AXIS2_PLACEMENT_3D('',#468,#386,#387);
#311=AXIS2_PLACEMENT_3D('',#469,#388,#389);
#312=AXIS2_PLACEMENT_3D('',#471,#390,#391);
#313=AXIS2_PLACEMENT_3D('',#473,#393,#394);
#314=AXIS2_PLACEMENT_3D('',#475,#395,#396);
#315=AXIS2_PLACEMENT_3D('',#477,#398,#399);
#316=AXIS2_PLACEMENT_3D('',#479,#400,#401);
#317=AXIS2_PLACEMENT_3D('',#480,#402,#403);
#318=AXIS2_PLACEMENT_3D('',#482,#405,#406);
#319=AXIS2_PLACEMENT_3D('',#484,#407,#408);
#320=AXIS2_PLACEMENT_3D('',#487,#410,#411);
#321=AXIS2_PLACEMENT_3D('',#488,#412,#413);
#322=AXIS2_PLACEMENT_3D('',#489,#414,#415);
#323=AXIS2_PLACEMENT_3D('',#491,#416,#417);
#324=AXIS2_PLACEMENT_3D('',#520,#418,#419);
#325=DIRECTION('axis',(0.,0.,1.));
#326=DIRECTION('refdir',(1.,0.,0.));
#327=DIRECTION('center_axis',(1.,0.,0.));
#328=DIRECTION('ref_axis',(0.,1.,0.));
#329=DIRECTION('center_axis',(-1.,0.,0.));
#330=DIRECTION('ref_axis',(0.,1.,0.));
#331=DIRECTION('center_axis',(-1.,0.,0.));
#332=DIRECTION('ref_axis',(0.,-1.,0.));
#333=DIRECTION('center_axis',(-1.,0.,0.));
#334=DIRECTION('ref_axis',(0.,-1.,0.));
#335=DIRECTION('',(1.,0.,0.));
#336=DIRECTION('center_axis',(1.,0.,0.));
#337=DIRECTION('ref_axis',(0.,-1.,0.));
#338=DIRECTION('center_axis',(-1.,0.,0.));
#339=DIRECTION('ref_axis',(0.,-1.,0.));
#340=DIRECTION('center_axis',(-1.,0.,0.));
#341=DIRECTION('ref_axis',(0.,-1.,0.));
#342=DIRECTION('center_axis',(-1.,0.,0.));
#343=DIRECTION('ref_axis',(0.,-1.,0.));
#344=DIRECTION('',(0.707106781186548,-0.707106781186548,8.65956056235493E-17));
#345=DIRECTION('center_axis',(-1.,0.,0.));
#346=DIRECTION('ref_axis',(0.,0.,1.));
#347=DIRECTION('center_axis',(1.,0.,0.));
#348=DIRECTION('ref_axis',(0.,0.,-1.));
#349=DIRECTION('center_axis',(1.,0.,0.));
#350=DIRECTION('ref_axis',(0.,0.,-1.));
#351=DIRECTION('center_axis',(1.,0.,0.));
#352=DIRECTION('ref_axis',(0.,-1.,3.06161699786838E-17));
#353=DIRECTION('center_axis',(0.,-1.,-1.22464679914735E-16));
#354=DIRECTION('ref_axis',(0.,-1.22464679914735E-16,1.));
#355=DIRECTION('center_axis',(-1.,0.,0.));
#356=DIRECTION('ref_axis',(0.,-1.,1.83697019872103E-16));
#357=DIRECTION('center_axis',(-1.,0.,0.));
#358=DIRECTION('ref_axis',(0.,-1.,1.83697019872103E-16));
#359=DIRECTION('center_axis',(1.,0.,0.));
#360=DIRECTION('ref_axis',(0.,-1.,3.06161699786838E-17));
#361=DIRECTION('center_axis',(-1.,0.,0.));
#362=DIRECTION('ref_axis',(0.,1.,0.));
#363=DIRECTION('',(-0.818888280151325,-0.573952946356062,-7.02889638616144E-17));
#364=DIRECTION('center_axis',(1.,0.,0.));
#365=DIRECTION('ref_axis',(0.,0.,-1.));
#366=DIRECTION('center_axis',(1.,0.,0.));
#367=DIRECTION('ref_axis',(0.,1.,0.));
#368=DIRECTION('center_axis',(1.,0.,0.));
#369=DIRECTION('ref_axis',(0.,0.,-1.));
#370=DIRECTION('',(-1.,0.,0.));
#371=DIRECTION('center_axis',(-1.,0.,0.));
#372=DIRECTION('ref_axis',(0.,1.,0.));
#373=DIRECTION('center_axis',(-1.,0.,0.));
#374=DIRECTION('ref_axis',(0.,1.,0.));
#375=DIRECTION('',(-1.,0.,0.));
#376=DIRECTION('center_axis',(1.,0.,0.));
#377=DIRECTION('ref_axis',(0.,1.,0.));
#378=DIRECTION('center_axis',(1.,0.,0.));
#379=DIRECTION('ref_axis',(0.,0.,-1.));
#380=DIRECTION('',(-0.906582061079846,0.422029580157859,5.16837174485824E-17));
#381=DIRECTION('center_axis',(1.,0.,0.));
#382=DIRECTION('ref_axis',(0.,0.,-1.));
#383=DIRECTION('center_axis',(1.,0.,0.));
#384=DIRECTION('ref_axis',(0.,1.,0.));
#385=DIRECTION('',(-1.,0.,0.));
#386=DIRECTION('center_axis',(1.,0.,0.));
#387=DIRECTION('ref_axis',(0.,0.,-1.));
#388=DIRECTION('center_axis',(1.,0.,0.));
#389=DIRECTION('ref_axis',(0.,1.,0.));
#390=DIRECTION('center_axis',(1.,0.,0.));
#391=DIRECTION('ref_axis',(0.,0.,-1.));
#392=DIRECTION('',(-0.707106781186548,0.707106781186547,8.65956056235493E-17));
#393=DIRECTION('center_axis',(1.,0.,0.));
#394=DIRECTION('ref_axis',(0.,1.,0.));
#395=DIRECTION('center_axis',(1.,0.,0.));
#396=DIRECTION('ref_axis',(0.,0.,-1.));
#397=DIRECTION('',(-1.,0.,0.));
#398=DIRECTION('center_axis',(1.,0.,0.));
#399=DIRECTION('ref_axis',(0.,0.,-1.));
#400=DIRECTION('center_axis',(1.,0.,0.));
#401=DIRECTION('ref_axis',(0.,0.,-1.));
#402=DIRECTION('center_axis',(1.,0.,0.));
#403=DIRECTION('ref_axis',(0.,1.,0.));
#404=DIRECTION('',(-1.,0.,0.));
#405=DIRECTION('center_axis',(-1.,0.,0.));
#406=DIRECTION('ref_axis',(0.,-1.,0.));
#407=DIRECTION('center_axis',(-1.,0.,0.));
#408=DIRECTION('ref_axis',(0.,-1.,0.));
#409=DIRECTION('',(1.,0.,0.));
#410=DIRECTION('center_axis',(1.,0.,0.));
#411=DIRECTION('ref_axis',(0.,-1.,0.));
#412=DIRECTION('center_axis',(-1.,0.,0.));
#413=DIRECTION('ref_axis',(0.,-1.,0.));
#414=DIRECTION('center_axis',(-1.,0.,0.));
#415=DIRECTION('ref_axis',(0.,0.,1.));
#416=DIRECTION('center_axis',(1.,0.,0.));
#417=DIRECTION('ref_axis',(0.,0.,-1.));
#418=DIRECTION('center_axis',(0.,0.,1.));
#419=DIRECTION('ref_axis',(1.,4.78544407166016E-17,0.));
#420=CARTESIAN_POINT('',(0.,0.,0.));
#421=CARTESIAN_POINT('Origin',(6.9,0.,0.));
#422=CARTESIAN_POINT('',(6.9,-2.25,-2.75545529808154E-16));
#423=CARTESIAN_POINT('Origin',(6.9,0.,0.));
#424=CARTESIAN_POINT('Origin',(1.,0.,0.));
#425=CARTESIAN_POINT('',(-2.77555756156289E-16,1.5,-1.83697019872103E-16));
#426=CARTESIAN_POINT('Origin',(-2.77555756156289E-16,0.,0.));
#427=CARTESIAN_POINT('',(0.3,1.5,1.83697019872103E-16));
#428=CARTESIAN_POINT('',(1.,1.5,-1.83697019872103E-16));
#429=CARTESIAN_POINT('Origin',(0.3,0.,0.));
#430=CARTESIAN_POINT('Origin',(-2.77555756156289E-16,0.,0.));
#431=CARTESIAN_POINT('Origin',(0.15,0.,0.));
#432=CARTESIAN_POINT('',(-3.12250225675825E-16,1.8,-2.20436423846524E-16));
#433=CARTESIAN_POINT('Origin',(-3.12250225675825E-16,0.,0.));
#434=CARTESIAN_POINT('',(0.15,1.65,-2.02066721859313E-16));
#435=CARTESIAN_POINT('Origin',(-3.09374129744554E-16,3.62,0.));
#436=CARTESIAN_POINT('',(-4.16333634234434E-16,-3.62,-4.43322141291342E-16));
#437=CARTESIAN_POINT('Origin',(-2.77555756156289E-16,0.,0.));
#438=CARTESIAN_POINT('Origin',(24.5855515116675,0.,0.));
#439=CARTESIAN_POINT('',(24.0115985653114,-3.37111171984867,-4.12842117728081E-16));
#440=CARTESIAN_POINT('',(24.0115985653114,-4.12842117728081E-16,3.37111171984867));
#441=CARTESIAN_POINT('Origin',(24.0115985653114,0.,-5.16052647160101E-16));
#442=CARTESIAN_POINT('',(24.5855515116675,-3.90662328928006E-16,3.19));
#443=CARTESIAN_POINT('Origin',(24.5855515116675,-5.13127008842741E-16,4.19));
#444=CARTESIAN_POINT('',(24.5855515116675,-3.19,-3.90662328928006E-16));
#445=CARTESIAN_POINT('Origin',(24.5855515116675,0.,0.));
#446=CARTESIAN_POINT('Origin',(24.5855515116675,0.,0.));
#447=CARTESIAN_POINT('Origin',(24.0115985653114,0.,-5.16052647160101E-16));
#448=CARTESIAN_POINT('Origin',(23.71,0.,0.));
#449=CARTESIAN_POINT('',(23.15,-3.975,-4.86797102661073E-16));
#450=CARTESIAN_POINT('',(23.71,-3.5825,-4.38729715794539E-16));
#451=CARTESIAN_POINT('Origin',(23.15,0.,0.));
#452=CARTESIAN_POINT('Origin',(26.585,0.,0.));
#453=CARTESIAN_POINT('',(28.9,-3.19,-3.90662328928006E-16));
#454=CARTESIAN_POINT('Origin',(28.9,0.,0.));
#455=CARTESIAN_POINT('',(26.585,-3.19,-3.90662328928006E-16));
#456=CARTESIAN_POINT('Origin',(28.9,0.,0.));
#457=CARTESIAN_POINT('',(28.9,-2.25,-2.75545529808154E-16));
#458=CARTESIAN_POINT('Origin',(28.9,0.,0.));
#459=CARTESIAN_POINT('',(28.9,-2.25,2.75545529808154E-16));
#460=CARTESIAN_POINT('Origin',(2.655,0.,0.));
#461=CARTESIAN_POINT('',(3.38,-3.975,-4.86797102661073E-16));
#462=CARTESIAN_POINT('Origin',(3.38,0.,0.));
#463=CARTESIAN_POINT('',(1.93,-3.3,-4.04133443718627E-16));
#464=CARTESIAN_POINT('',(2.655,-3.6375,-4.4546527318985E-16));
#465=CARTESIAN_POINT('Origin',(1.93,0.,0.));
#466=CARTESIAN_POINT('Origin',(13.265,0.,0.));
#467=CARTESIAN_POINT('',(13.265,-3.975,-4.86797102661073E-16));
#468=CARTESIAN_POINT('Origin',(28.9,0.,0.));
#469=CARTESIAN_POINT('Origin',(0.14,0.,0.));
#470=CARTESIAN_POINT('',(0.28,-3.9,-4.77612251667468E-16));
#471=CARTESIAN_POINT('Origin',(0.28,0.,0.));
#472=CARTESIAN_POINT('',(0.14,-3.76,-4.60467196479405E-16));
#473=CARTESIAN_POINT('Origin',(0.71,0.,0.));
#474=CARTESIAN_POINT('',(1.14,-3.9,-4.77612251667468E-16));
#475=CARTESIAN_POINT('Origin',(1.14,0.,0.));
#476=CARTESIAN_POINT('',(0.71,-3.9,-4.77612251667468E-16));
#477=CARTESIAN_POINT('Origin',(1.14,3.3,0.));
#478=CARTESIAN_POINT('',(1.14,-3.3,-4.04133443718627E-16));
#479=CARTESIAN_POINT('Origin',(1.14,0.,0.));
#480=CARTESIAN_POINT('Origin',(1.535,0.,0.));
#481=CARTESIAN_POINT('',(1.535,-3.3,-4.04133443718627E-16));
#482=CARTESIAN_POINT('Origin',(28.9,0.,0.));
#483=CARTESIAN_POINT('',(23.9,2.05,-2.51052593825207E-16));
#484=CARTESIAN_POINT('Origin',(23.9,0.,0.));
#485=CARTESIAN_POINT('',(28.9,2.05,-2.51052593825207E-16));
#486=CARTESIAN_POINT('',(28.9,2.05,-2.51052593825207E-16));
#487=CARTESIAN_POINT('Origin',(28.9,0.,0.));
#488=CARTESIAN_POINT('Origin',(23.9,0.,0.));
#489=CARTESIAN_POINT('Origin',(28.9,2.85,0.));
#490=CARTESIAN_POINT('',(28.9,2.85,0.));
#491=CARTESIAN_POINT('Origin',(28.9,0.,0.));
#492=CARTESIAN_POINT('Ctrl Pts',(40.5,0.,0.));
#493=CARTESIAN_POINT('Ctrl Pts',(40.5,0.,0.));
#494=CARTESIAN_POINT('Ctrl Pts',(40.5,0.,0.));
#495=CARTESIAN_POINT('Ctrl Pts',(40.5,0.,0.));
#496=CARTESIAN_POINT('Ctrl Pts',(40.5,0.,0.));
#497=CARTESIAN_POINT('Ctrl Pts',(40.5,0.,0.));
#498=CARTESIAN_POINT('Ctrl Pts',(40.5,0.,0.));
#499=CARTESIAN_POINT('Ctrl Pts',(40.5,0.,0.));
#500=CARTESIAN_POINT('Ctrl Pts',(40.5,0.,0.));
#501=CARTESIAN_POINT('Ctrl Pts',(40.5,2.85,0.));
#502=CARTESIAN_POINT('Ctrl Pts',(40.5,2.85,2.85));
#503=CARTESIAN_POINT('Ctrl Pts',(40.5,0.,2.85));
#504=CARTESIAN_POINT('Ctrl Pts',(40.5,-2.85,2.85));
#505=CARTESIAN_POINT('Ctrl Pts',(40.5,-2.85,0.));
#506=CARTESIAN_POINT('Ctrl Pts',(40.5,-2.85,-2.85));
#507=CARTESIAN_POINT('Ctrl Pts',(40.5,0.,-2.85));
#508=CARTESIAN_POINT('Ctrl Pts',(40.5,2.85,-2.85));
#509=CARTESIAN_POINT('Ctrl Pts',(40.5,2.85,0.));
#510=CARTESIAN_POINT('Ctrl Pts',(28.9,2.85,0.));
#511=CARTESIAN_POINT('Ctrl Pts',(28.9,2.85,2.85));
#512=CARTESIAN_POINT('Ctrl Pts',(28.9,0.,2.85));
#513=CARTESIAN_POINT('Ctrl Pts',(28.9,-2.85,2.85));
#514=CARTESIAN_POINT('Ctrl Pts',(28.9,-2.85,0.));
#515=CARTESIAN_POINT('Ctrl Pts',(28.9,-2.85,-2.85));
#516=CARTESIAN_POINT('Ctrl Pts',(28.9,0.,-2.85));
#517=CARTESIAN_POINT('Ctrl Pts',(28.9,2.85,-2.85));
#518=CARTESIAN_POINT('Ctrl Pts',(28.9,2.85,0.));
#519=CARTESIAN_POINT('',(40.5,0.,0.));
#520=CARTESIAN_POINT('Origin',(28.9,-5.55111512312578E-16,0.));
#521=UNCERTAINTY_MEASURE_WITH_UNIT(LENGTH_MEASURE(0.01),#525,
'DISTANCE_ACCURACY_VALUE',
'Maximum model space distance between geometric entities at asserted c
onnectivities');
#522=UNCERTAINTY_MEASURE_WITH_UNIT(LENGTH_MEASURE(0.01),#525,
'DISTANCE_ACCURACY_VALUE',
'Maximum model space distance between geometric entities at asserted c
onnectivities');
#523=(
GEOMETRIC_REPRESENTATION_CONTEXT(3)
GLOBAL_UNCERTAINTY_ASSIGNED_CONTEXT((#521))
GLOBAL_UNIT_ASSIGNED_CONTEXT((#525,#527,#528))
REPRESENTATION_CONTEXT('','3D')
);
#524=(
GEOMETRIC_REPRESENTATION_CONTEXT(3)
GLOBAL_UNCERTAINTY_ASSIGNED_CONTEXT((#522))
GLOBAL_UNIT_ASSIGNED_CONTEXT((#525,#527,#528))
REPRESENTATION_CONTEXT('','3D')
);
#525=(
LENGTH_UNIT()
NAMED_UNIT(*)
SI_UNIT(.MILLI.,.METRE.)
);
#526=(
LENGTH_UNIT()
NAMED_UNIT(*)
SI_UNIT($,.METRE.)
);
#527=(
NAMED_UNIT(*)
PLANE_ANGLE_UNIT()
SI_UNIT($,.RADIAN.)
);
#528=(
NAMED_UNIT(*)
SI_UNIT($,.STERADIAN.)
SOLID_ANGLE_UNIT()
);
#529=SHAPE_DEFINITION_REPRESENTATION(#530,#531);
#530=PRODUCT_DEFINITION_SHAPE('',$,#533);
#531=SHAPE_REPRESENTATION('',(#283),#523);
#532=PRODUCT_DEFINITION_CONTEXT('part definition',#537,'design');
#533=PRODUCT_DEFINITION('5.7x28mm_FMJ','5.7x28mm_FMJ v1',#534,#532);
#534=PRODUCT_DEFINITION_FORMATION('',$,#539);
#535=PRODUCT_RELATED_PRODUCT_CATEGORY('5.7x28mm_FMJ v1',
'5.7x28mm_FMJ v1',(#539));
#536=APPLICATION_PROTOCOL_DEFINITION('international standard',
'automotive_design',2009,#537);
#537=APPLICATION_CONTEXT(
'Core Data for Automotive Mechanical Design Process');
#538=PRODUCT_CONTEXT('part definition',#537,'mechanical');
#539=PRODUCT('5.7x28mm_FMJ','5.7x28mm_FMJ v1',$,(#538));
#540=PRESENTATION_STYLE_ASSIGNMENT((#543));
#541=PRESENTATION_STYLE_ASSIGNMENT((#544));
#542=PRESENTATION_STYLE_ASSIGNMENT((#545));
#543=SURFACE_STYLE_USAGE(.BOTH.,#546);
#544=SURFACE_STYLE_USAGE(.BOTH.,#547);
#545=SURFACE_STYLE_USAGE(.BOTH.,#548);
#546=SURFACE_SIDE_STYLE('',(#549));
#547=SURFACE_SIDE_STYLE('',(#550));
#548=SURFACE_SIDE_STYLE('',(#551));
#549=SURFACE_STYLE_FILL_AREA(#552);
#550=SURFACE_STYLE_FILL_AREA(#553);
#551=SURFACE_STYLE_FILL_AREA(#554);
#552=FILL_AREA_STYLE('\X2\92FC\X0\ - \X2\30B530C630F3\X0\',(#555));
#553=FILL_AREA_STYLE('\X2\771F936E\X0\ - \X2\53E43044\X0\ - \X2\30DE30C330C8\X0\',
(#556));
#554=FILL_AREA_STYLE('\X2\9285\X0\ - \X2\672A51E67406\X0\',(#557));
#555=FILL_AREA_STYLE_COLOUR('\X2\92FC\X0\ - \X2\30B530C630F3\X0\',#558);
#556=FILL_AREA_STYLE_COLOUR('\X2\771F936E\X0\ - \X2\53E43044\X0\ - \X2\30DE30C330C8\X0\',
#559);
#557=FILL_AREA_STYLE_COLOUR('\X2\9285\X0\ - \X2\672A51E67406\X0\',#560);
#558=COLOUR_RGB('\X2\92FC\X0\ - \X2\30B530C630F3\X0\',0.627450980392157,
0.627450980392157,0.627450980392157);
#559=COLOUR_RGB('\X2\771F936E\X0\ - \X2\53E43044\X0\ - \X2\30DE30C330C8\X0\',
0.,0.,0.);
#560=COLOUR_RGB('\X2\9285\X0\ - \X2\672A51E67406\X0\',0.,0.,0.);
ENDSEC;
END-ISO-10303-21;
